<svg xmlns="http://www.w3.org/2000/svg" viewBox="0 0 279.72 114.89"><defs><style>.cls-1{fill:#fff;}.cls-2{fill:#202c36;}</style></defs><title>Asset 1</title><g id="Layer_2" data-name="Layer 2"><g id="Layer_1-2" data-name="Layer 1"><g id="Layer_2-2" data-name="Layer 2"><g id="Layer_1-2-2" data-name="Layer 1-2"><path class="cls-1" d="M12.08,9.56q0,20.37.23,40.74H26.45l.3.91a3.32,3.32,0,0,1,2.2-.84q1.75,0,2.17,1.22a7.93,7.93,0,0,1,.42,2.58v3.5q0,1.75-.11,3.5l-.61.61q-1.52,0-3,.11t-3,.11H1.52a2.33,2.33,0,0,1-.87-.38Q0,61.24,0,60.94V9.56l1.22-1H11Zm-11.7,49-.15.08.15.15.15-.15ZM.3,48.17l.23.23.15-.23-.15-.3ZM1.22,13l-.49.3a.49.49,0,0,0-.27.46A3.91,3.91,0,0,0,1,13.51a.49.49,0,0,0,.3-.46ZM.53,46.34a.68.68,0,0,0,.3-.08A.24.24,0,0,0,1,46H.84Zm.08-5.93.15.3.15-.3-.15-.3Zm.15-29,.46-.61H.76ZM1,32.74l.08-.3-.3-.53v.15ZM.76,42.47H1l-.23-.23Zm0,1.6c.51,0,.76-.28.76-.84ZM.84,20.28v.23L1,20.35ZM1,21.87h.23v-.23H1Zm.23,2.89h.61v-.3H1.22ZM1.22,52h.3l1.29-.3H1.22Zm.08-1.82.23.3.23-.3-.23-.3ZM1.3,53l.23.3.23-.3-.23-.3Zm.08-13.68H1.6a.22.22,0,0,0-.08-.15Zm0,5.17.08.08.15-.15-.08-.15ZM2,30.38l.08-.23a.54.54,0,0,0-.46-.61H1.47Zm-.46-3.27.46-.3-.46-.53Zm.08-9.5.23.23v-.53ZM2,11.46l-.15.23.15.15-.15-.15ZM2.58,16a1,1,0,0,0-.46.46l-.3.61ZM1.82,28.64l.15.15.23-.15L2,28.41Zm0,11.78.15.3.23-.3L2,40.11Zm0,18.24H2v-.3H1.82ZM2,25.6h.3v-.38H2Zm.3,15.58a.83.83,0,0,0-.3.53l.61-.3ZM2.28,23H3.42l-1.29-.15Zm.61,9.27-.3-.84-.38.38Zm-.08,5.55c-.41,0-.61.18-.61.53h.61Zm-.23,10.8.3-.46H2.2Zm0-33.14V15l-.3.23ZM2.36,46.12l.23.23.15-.23-.15-.3Zm0,14.59.23.23.15-.23-.15-.3Zm.08-4.26.15.15v-.23Zm.91-4.79a.61.61,0,0,0-.49.23,5.14,5.14,0,0,0-.34.46l.08.08ZM2.58,54h.23l-.23-.23ZM3,57.9H2.58q.23,0,.23.15l-.23.08ZM2.74,37.3h.68l-.3-.46ZM3,10.3l-.15.08.15.08a.22.22,0,0,0,.15-.08ZM3,24.91,2.81,25l.15.15L3.12,25ZM2.81,29.4h.3v-.3h-.3Zm.3-1.67.53-.91H3.12Zm.08,11.4.15.23s.09-.06.11,0,0,.06,0,.11l.15.23.15-.23a1.51,1.51,0,0,0-.38-.53ZM3.34,34q.07.23.46.23V34Zm.23,4.33a1.08,1.08,0,0,0,.61-.91q-.84,0-.84.68Zm.3,3.8c-.35,0-.53.2-.53.61.36,0,.54-.17.54-.58ZM3.42,21l.15.15v-.3Zm0,13.91A1.48,1.48,0,0,0,4.1,36a2.64,2.64,0,0,0-.1-.73.53.53,0,0,0-.58-.38Zm.08,4.18a.31.31,0,0,0-.08.23ZM3.42,57.21l.15.15v-.3ZM3.5,25.6a.81.81,0,0,0,.3.38V25.6Zm0,33.82.53.15-.23-.68Zm.23-43.7-.15.08.15.15.08-.15Zm-.15,2.36a2,2,0,0,1,1.29-.76L4.26,17Zm0,30.78H3.8v-.23H3.57ZM3.73,61.1l-.15.08.15.15.08-.15Zm2.66-1.9s0-.08-.11-.08-.11,0-.11.08h.22ZM4.18,24.84l.68-.61-.53-.76-.53.3Zm-.38,3.8.53-.53-.23-.53ZM4,41.33l-.15.08.15.15.15-.15Zm.1-27.89h.23v-.23H4.1Zm0,33.14.38-.19A.37.37,0,0,0,4.71,46H4.1Zm.08-26.3v.23l.15-.15ZM18.47,59.64l.3-.46.23.38v.08h.91a1.3,1.3,0,0,0-.57-1.1,1.3,1.3,0,0,1-.57-1.1l1.14.15.61-.38h5.32l.3-.53q0-1-.68-1.06a12.59,12.59,0,0,0-1.37-.08v-.46H23l.38.23-.08.23H11.78a5.67,5.67,0,0,0,1.52-1.75,3.54,3.54,0,0,0-1.63,1,2.18,2.18,0,0,1-1.71.72l-.46-.3a4,4,0,0,1-.8.23,2.63,2.63,0,0,1-.76,0,.8.8,0,0,1-.57-.34,1.5,1.5,0,0,1-.23-.91l.3-.23-.3-.53V45.81l.53-.3-.53-.15V24.46l.61-.68H7.14v-2.9l1.06-.53-.38-.15-.68.08V14.5l.53-1.06L7,13.66l-.76-.3a1.24,1.24,0,0,0-1,.57,3.57,3.57,0,0,1-.87.87h1v7.37l-.4.54.38.46V25L5,25.6h.4v1.75l-.3-.3-.23.3.53.76v9l-.4.42.38.61V48.4l-.3.46.3.53-.3,1.06.38.53v6.23H11.4l-.08.53.23.61.53-1H14.9v.23l.68-.19a2.23,2.23,0,0,1,.61-.11l1.75.08a1.52,1.52,0,0,1-.49.65.79.79,0,0,0-.34.65l.61-.3.76.3-.53.53v.15ZM4.48,45l-.15.08.15.15.15-.15Zm.15,7,.23-.3-.23-.23-.3.23Zm-.22,4.6.23.23.15-.23-.15-.23Zm.23-40.36h.23L4.64,16Zm0,23.86h.23v-.23H4.64ZM4.94,26l.15.23L5.32,26l-.23-.23Zm0,4.86.15.3.23-.3-.23-.3Zm0,29,.15.23.23-.23-.23-.3Zm1.82-1.29.15.23.15-.23-.15-.3ZM7.22,17.8l.46.46L7.83,18l-.15-.23-.08.08-.15-.38Zm0,23.64.23.23.15-.23-.15-.3ZM8.06,26q0-.46-.61-.46v.08ZM7.45,55h.23v-.3H7.45Zm.08-22.57.15.23.15-.23-.15-.3Zm.15,5.62-.15.23.15.23-.15-.23ZM7.52,44l.15.23L7.83,44l-.15-.23Zm.15-32.22a1.63,1.63,0,0,0,.42-.08.94.94,0,0,0,.42-.23H7.68Zm0,15.58A1.66,1.66,0,0,0,8.74,27H7.68Zm.53,4.56v-.46H7.83Zm0-18.7L8.74,13l-.23-.23a.44.44,0,0,0-.3-.08Zm.15,4-.15.08.08.15.23-.15ZM8.5,30.14v-.53l-.3.3ZM8.2,34.7h.3v-.46H8.2Zm.38,4.71.68-1.06-1,.65Zm-.38,5.7a1.91,1.91,0,0,0,1-.27A.93.93,0,0,0,9.65,44a1.47,1.47,0,0,0-.72.19,1.46,1.46,0,0,1-.72.19Zm.08-23.18.23.23.15-.23-.15-.3Zm0,38.76.23.23.15-.23-.15-.3ZM8.51,9.86a.24.24,0,0,0,.15.23.67.67,0,0,0,.3.08l-.38-.38Zm.08,11.32.15.23.15-.23-.15-.3Zm.08,38.46.3.3v-.76Zm.15-45.37L9,14.5l.23-.23L9,14ZM9,35.78l-.15.3.15.23-.15-.23Zm-.15,7.75.15.23.23-.23L9,43.23Zm.3-25.84L9,17.84h.3Zm.23,2.2.15.23.15-.23-.15-.3ZM9.5,52.65c-.1,0-.15.08-.15.23L9.5,53Zm.15-15.28a.82.82,0,0,0,.72-.42,4.9,4.9,0,0,0,.42-.8l-.46-.38-.61.3.3.46Zm.15-4-.08.08.15.15.13-.1ZM9.88,30l.15.15v-.23Zm.84,20.6a4,4,0,0,1-.34.3.8.8,0,0,0-.27.38l.61-.3Zm-.38-37h.23l-.08-.15Zm0,15.73.08.08.15-.15-.08-.15Zm0,29.87h.15v-.3Zm.15-4.64H11v-.3Zm.08-8.44.15.23.23-.23-.23-.3Zm.15-21.89H11V24h-.3Zm.53,29a.89.89,0,0,0,.3.76v-.76Zm.15-20.52.15.23.15-.23-.15-.3ZM12.92,52.2l.23.23V52Zm.76,8.66h.23l-.08-.08Zm.15-7.3.53-.3-.53-.61Zm.08,5.09.23.23.15-.23-.15-.3Zm0,2.58.23.23.15-.23-.15-.3Zm.53-1.06.15.23.23-.23-.23-.23Zm.23-8.44a3.86,3.86,0,0,1,.46.53l.23-.3a3.81,3.81,0,0,0-.46-.53Zm.46,7.68v-.23H14.9ZM15,51.66A.44.44,0,0,0,15,52ZM15.5,53l.15.3.23-.3-.23-.3Zm.15,5.7a1.63,1.63,0,0,0,.3-.53h-.3Zm1.6-4.1,2,.23a1,1,0,0,0-.84-.61A5.43,5.43,0,0,0,17.25,54Zm1.22,6.92.3-.61-.53.3ZM20,53.26,21,53v-.61l-.8-.34a7.79,7.79,0,0,1-.8-.42l-.53,1Zm.91,5.93a2.08,2.08,0,0,0,.38.46l.23-.23-.23-.23-.08.08-.15-.38Zm.91.76v-.84l-.23.53Zm.08-9.2L22,51l.15-.23-.15-.3Zm0,9.42.15.23.15-.23L22,60Zm.1-2.58a1,1,0,0,0,.46.87,1.52,1.52,0,0,0,.91.34v-.46Zm.3-4.33h.61L22.65,53Zm0,1.29h.38l-.38-.3Zm1,5.78A1.6,1.6,0,0,0,24.36,60q.46-.38.84-.76l-.46-.3Zm1.9.61h.3v-.15h-.3Zm.08-2.81.23.23.15-.23-.15-.23Zm.91,1.52h.38a.26.26,0,0,0-.11-.23,1.71,1.71,0,0,1-.27-.23Zm.46-.76h.61v-.76Zm.08-5.09a.64.64,0,0,0,.49.27,5.07,5.07,0,0,0,.57,0v-.3Zm.38,2.36.15.23.15-.23-.15-.3Zm.15,4.64a.73.73,0,0,0,.23.27,1.85,1.85,0,0,0,.3.19V60.8Zm.3-1.67-.08.08.15.15.15-.15Zm0-2.51.23.23.15-.23-.15-.23Zm.23-1.06H28l-.23-.3Zm0-2.56.15.3.23-.3L28,52.7Zm.46,4.1-.19.38a.9.9,0,0,0-.11.38v.08a.49.49,0,0,0,.23-.3,1.28,1.28,0,0,0,.08-.38Zm0,1.6h.23l-.23-.3ZM28.5,54a.92.92,0,0,0,.84.61Q29.34,54,28.5,54Zm.76,7.3a1.28,1.28,0,0,0,.53-.53h-.53Zm.08-7.75.23.23.15-.23-.15-.3Zm.68,2,.23-.3h-.68Zm-.38,3,.15.15v-.3Z"/><path class="cls-1" d="M60.5,62.15a1.72,1.72,0,0,1-.87-.57,4.74,4.74,0,0,1-.57-.87h-.61l1.67-1.29-1-.38-.68.3a1,1,0,0,1,.08-.65l.23-.65.76.53.3-.3,1,.3.53-1.29h1.29L62,58.58l1.9-1.29,1,.76,1.82-1a19.18,19.18,0,0,0,7.6-2.66,23,23,0,0,0,6-5.24,24.39,24.39,0,0,0,3.91-7,22.9,22.9,0,0,0,1.41-7.94,6.75,6.75,0,0,0-.23-1.71,6.78,6.78,0,0,1-.23-1.71,6.32,6.32,0,0,1,.15-1.14l-.15-.15-.3.53a20.14,20.14,0,0,0-1.25-3.65q-.8-1.75-1.79-3.5l.76-.53H81.24a12.83,12.83,0,0,0-1.56-2.2,19.86,19.86,0,0,0-1.94-1.9l-.3-.84-.46.3L74.17,16l-.08-.46,1.52-2.74.3.08-.76-.61a19,19,0,0,1-1,1.71,2.54,2.54,0,0,1-1.44,1.18L72.12,15l1-.91-.53-2.2-.84.68L72.43,14l-.68.68-1.82-1.06-.61.38a5.84,5.84,0,0,1-1.94-.46,4.82,4.82,0,0,0-1.94-.38l-.53.08.53-.84-1.06-.53-1.22.68.15.08.84-.46.23.3-.46.76a18,18,0,0,0-5.62.8A28.48,28.48,0,0,0,54,15.75q-1.82,1-3,1.75a4,4,0,0,1-2,.8l.3.23a22.69,22.69,0,0,0-4.79,5.62,16.52,16.52,0,0,0-2.43,7l-.46.23.23.23q0,2.51.11,4.64a23.17,23.17,0,0,0,.57,4.07,24.23,24.23,0,0,0,1.29,3.91,27.19,27.19,0,0,0,2.2,4.1l-.3.84.23.23.53-.23,3.27,3.27-.46.76.08.08.84-.68a8.21,8.21,0,0,0,2.24,1.6q1.25.61,2.47,1.29v.15L52.82,56l.53,1.06-.76-.3-.08.84a1.46,1.46,0,0,0,.38,1,2.38,2.38,0,0,1,.53,1h-.3L51,57.6a1.48,1.48,0,0,0-.46-1,2.3,2.3,0,0,0-.91-.49A2.06,2.06,0,0,0,50,57q.27.38.57.76t.57.8a1.74,1.74,0,0,1,.27,1,3.75,3.75,0,0,1-1.63-.38,10.51,10.51,0,0,1-1.6-1A14.23,14.23,0,0,1,46.63,57q-.72-.68-1.25-1.22l.3-.38-.3-.38-.3.46a25.81,25.81,0,0,1-6.61-9.23,28.17,28.17,0,0,1-2.3-11.15,26.07,26.07,0,0,1,2.2-10.68,27.83,27.83,0,0,1,6-8.7,28.64,28.64,0,0,1,8.85-5.89,26.83,26.83,0,0,1,10.7-2.17,27.32,27.32,0,0,1,5.51.57,19.33,19.33,0,0,1,5.21,1.86v.46l.53-.23a24.5,24.5,0,0,1,6.57,4.22,27.56,27.56,0,0,1,5,5.89,26.83,26.83,0,0,1,3.12,7.07,28.63,28.63,0,0,1,1.06,7.75,27.37,27.37,0,0,1-2.2,11.06,26.47,26.47,0,0,1-6,8.7,27.41,27.41,0,0,1-9,5.66,30,30,0,0,1-11.06,2A14.06,14.06,0,0,1,60,62.46ZM37.92,31.75l-.23.15.23.15.23-.15Zm.46,1.6-.23.08.3.15.3-.15ZM38.23,27l.23.23.23-.23-.23-.3Zm1.52,1.29V28h-.3Zm-.23,9.5.23.23.15-.23-.15-.3Zm.08,8.89.08.08.15-.15-.08-.08ZM40,34l.08-.15a1.62,1.62,0,0,0-.3-.38v.15Zm.08,6.92.23.23.15-.23-.15-.23Zm.08-11.7.15.15v-.23Zm.15-4,.46-.76h-.15Zm0,5.7.3.3.15-.08-.3-.3Zm0,14.06.46-.23-.15-.08Zm.08-17.33a1.22,1.22,0,0,0,.27.84,4.84,4.84,0,0,0,.65.61,3.26,3.26,0,0,0-.15-1,.7.7,0,0,0-.8-.45Zm.15,15.81h.23v-.53ZM41,27.27h.53L41,26.74Zm.08-5.4.15.23.23-.23-.23-.23Zm0,1.14.15.08v-.15Zm0,14.74.08.08.15-.15-.08-.15Zm.46-11.86H42v-.23Zm.3-2.51.15.3.15-.3-.15-.3ZM42,49.76h.23v-.15H42Zm.08-30.55v.23l.15-.15Zm.15,24.09a.61.61,0,0,0,.3.46v-.15a.69.69,0,0,0-.08-.3.25.25,0,0,0-.23-.15Zm0,4.26h.3l-.3-.76Zm.38-25.69.23.23.15-.23-.15-.23Zm.68,3,1.06-.46-1.29.23ZM46.1,44.4l-.3.15q-.53,0-1-1.29a22.61,22.61,0,0,1-.8-3q-.34-1.67-.53-3.19a20.2,20.2,0,0,1-.19-2,18.39,18.39,0,0,1,.3-3.57,16.21,16.21,0,0,1,.84-2.85A18.62,18.62,0,0,1,45.79,26q.8-1.33,1.71-3.08a18.36,18.36,0,0,0,3.65-3.19,13.93,13.93,0,0,1,3.8-3l.84.61.3-.53h-.53c0-.2.39-.42,1-.65s1.34-.44,2.13-.65A20.74,20.74,0,0,1,61,15a13.53,13.53,0,0,1,1.48-.15,2.65,2.65,0,0,1,1.82.61l1.06-.61h.84a4.56,4.56,0,0,1,1,.11,3,3,0,0,1,.87.34.94.94,0,0,1,.46.68l.76-.3.46.3-1.44,1-.61-.61-.23.15q0,.76.91,1.06a5,5,0,0,0,1.52.3l.08-.46-.46-.3L70,16.4l1.06.61-.3-.76,1.82.76v1l.3-.84a4,4,0,0,1,1.37.49,9.29,9.29,0,0,1,1.48,1A16.94,16.94,0,0,1,77.1,20,9.33,9.33,0,0,1,78,21.14l.3-.15.3.76-.08.68a1.45,1.45,0,0,1,.87.42,11.86,11.86,0,0,1,1,1,6.68,6.68,0,0,1,.84,1.1,2,2,0,0,1,.34,1l-.38.68q.76,0,1.25,1.18a16.2,16.2,0,0,1,.84,2.7,25.49,25.49,0,0,1,.49,3q.15,1.48.15,2A18,18,0,0,1,81,45.8,23.58,23.58,0,0,1,73.11,53a19.75,19.75,0,0,0-1.79,1.18,3.19,3.19,0,0,1-1.94.65l-.46-.3-.38.53-3.19.53-.53-.3L64.9,55a4.21,4.21,0,0,0-1.41.23,4.19,4.19,0,0,1-1.41.23,14.58,14.58,0,0,1-3-.46,27.7,27.7,0,0,1-4-1.25,18.43,18.43,0,0,1-3.53-1.82A2.82,2.82,0,0,1,50,49.69v-.15A2.15,2.15,0,0,1,48.79,49a8.56,8.56,0,0,1-1.29-1.25,10.17,10.17,0,0,1-1.06-1.52,4,4,0,0,1-.53-1.33ZM43.32,18.3h.53a.84.84,0,0,0-.53-.3Zm.23,1.29.19.38a.36.36,0,0,0,.34.23v-.61Zm.3,30.17c-.1,0-.15.08-.15.23l.15.15Zm.3-33.52.23.15.23-.15L44.38,16Zm0,7.45.23.23.23-.23-.23-.3ZM44.38,17l.08-.23-.23.38Zm0,31.54h.46l-.15-.23Zm.08-19.68.23.23v-.53Zm.3-6.08.08.15.08-.15a.22.22,0,0,0-.08-.15Zm.08-3.5a.94.94,0,0,0,.34-.08.21.21,0,0,0,.19-.23ZM45,42.39q.15.23.38.53a.72.72,0,0,0,.61.3.72.72,0,0,0-.3-.61A1.11,1.11,0,0,0,45,42.39ZM45.14,28l.23.3.23-.3-.23-.3Zm.23-10.79.15.08.38-.53Zm.15,3.5-.15.08.08.15.23-.15Zm-.15,30.7a.83.83,0,0,0,.53-.3h-.53Zm.38-30,.15.23.15-.23-.15-.3Zm.38-3.65h.3v-.3h-.3Zm0,36.4a.25.25,0,0,0,.19.23.91.91,0,0,0,.34.08.25.25,0,0,0-.19-.23,1,1,0,0,0-.34-.07Zm.3-38.46.46-.76-.08-.08Zm0,34.66h.23v-.23h-.23Zm.46-30.25.3-.3h-.3Zm.91,35.26a1.22,1.22,0,0,0-.91.61,1.72,1.72,0,0,0,.61-.11.47.47,0,0,0,.3-.48Zm.08-40,.08-.08q0-.15-.27-.27a1.18,1.18,0,0,0-.42-.11h.3Zm-.61,9.27.23.23v-.46Zm0,27.74a1.52,1.52,0,0,1,.38.53l.15-.23a1.79,1.79,0,0,1-.11-.27.77.77,0,0,0-.19-.27Zm.08-38.91h.23l-.08-.15Zm.23,39a.22.22,0,0,1-.08.15.22.22,0,0,1,.08-.15Zm.08-26.75h.61l-.61-.84Zm.53,21,.76-.91-1.06.46Zm-.15,6-.15.15h.3Zm.46,2.28.23-.15-.53-.53-.3.08Zm-.3,2.51.3-.53h-.08l.08-.23-.3-.53-.3.53Zm.3-14.44h.23l-.23-.23Zm.08-11.25.15.23.15-.23-.15-.3Zm.08-8.59.15.08c.1,0,.15-.08.15-.23v-.08Zm.08,14.52q1.44,3.34,2.62,5.47a12.52,12.52,0,0,0,2.77,3.5A11.94,11.94,0,0,0,58,49a36.69,36.69,0,0,0,5.93,1.41l5.62-1.22.23-.38A34.6,34.6,0,0,0,73.38,46,15.63,15.63,0,0,0,76,43a12.71,12.71,0,0,0,1.67-3.61,16.2,16.2,0,0,0,.57-4.48,13.33,13.33,0,0,0-.8-4.71,14,14,0,0,0-2.2-3.88A16.92,16.92,0,0,0,72,23.24a29.57,29.57,0,0,0-4-2.43v-.53l-.53.3a16.36,16.36,0,0,1-2.24-.15A16.5,16.5,0,0,0,63,20.28a7.88,7.88,0,0,0-3.57.8,10.51,10.51,0,0,1-3.42,1,45.59,45.59,0,0,0-3.38,3.53A15,15,0,0,0,50.38,29a15.69,15.69,0,0,0-1.22,3.88,27.59,27.59,0,0,0-.45,4.92Zm.53-11.93a.64.64,0,0,0-.53.38h.53Zm.3,21.36-.84.84h.46l.84-.53L49.48,47Zm-.3-2,.08-.15L49,44.7v.15ZM49,55.41h.3l-.3-.23Zm.38-30.25.15.3.15-.3-.15-.3Zm0,20.29.15.23.15-.23-.15-.23Zm.23-21.66-.08.08.15.15.08-.15ZM49.48,58h.23v-.23Zm.08-3.27.15.23.23-.23-.23-.3Zm.61-37.62-.15.08.15.15.15-.15Zm0,5.17L50,22.4l.15.15.15-.15Zm.3,22.12v-.3h-.15Zm0,11v-.23h-.15Zm-.08-38.84.08.15V16.4Zm0,4.33.08.15.08-.15a.23.23,0,0,0-.08-.15Zm.76,25.46L51,46.5l.15.15.15-.15ZM51.07,20l.23.23.23-.23-.23-.23Zm.23-4.86h.3V15h-.3Zm.08,40,.23.23V55Zm.08-4.71a.7.7,0,0,0,.23.57,5.12,5.12,0,0,0,.46.34l.15-.08Zm.3-37.92.68-.53a1.13,1.13,0,0,0-.84.3ZM51.6,23.09h.15l-.15-.15Zm0,25a.89.89,0,0,0,.76.46Zm.15,11.78,1.37-.15-1.44.3Zm0-2.81.3.23-.3-.53ZM51.91,21l.15.15v-.3Zm.46,39-.23.15L52,60l.23-.23Zm.53-40.58-.53-.84-.3.3Zm-.15,28,.38-.38-.84-.23ZM52.37,50l.23.23.15-.23-.15-.3Zm.07,10a1.09,1.09,0,0,1,.91.68,1.33,1.33,0,0,1-.61-.15A.54.54,0,0,1,52.44,60Zm.38-39.75-.08-.08-.15.08.08-.08Zm.3-8.44v-.23h-.3Zm-.3,38.46c0,.41.18.61.53.61,0-.38-.18-.58-.53-.58Zm.38-40,.15.23.15-.23L53.35,10ZM53.66,49l-.08.08.15.15.08-.08Zm0,2.66.15.3.23-.3-.23-.3Zm.15-29.79h.3v-.23h-.3Zm.3-2a2.07,2.07,0,0,0,.19.42,1.73,1.73,0,0,0,.27.34v-.76Zm.08,32.38.23.23V52Zm.23-2a10.52,10.52,0,0,1,.42,1.06q.27.76.65.76a5.25,5.25,0,0,0-.19-1.14c-.13-.51-.37-.76-.72-.76Zm1.14,10L55.4,60l1.22.68.3-.08-.61-2.36a1.68,1.68,0,0,1-.46.65,1,1,0,0,1-.68.27l-.3-.08-.46-1.29.3-1.14q.53,0,.53.61c0,.41.18.61.53.61l.38-.3-.53-1.29.3-.3.76.38.08.76.3.23.61-.84,1.29.23-.91,1.37-.53-.53-.46.3.61.68-.3,1.29.61.23-.3.61.38.68-.68-.3-.23.91a1,1,0,0,1-1-.68c-.23-.46-.52-.68-.87-.68l-.15.08Zm-1,.76h-.15v-.15Zm.08-40,.23.23.23-.23-.23-.3Zm.15-8.51a1.42,1.42,0,0,0,.11.57.48.48,0,0,0,.49.27V12.4Zm1.14-.53h.76l-.38-.53Zm1.06,9,.23-.23-.84-1-.46.68Zm-.76-2.58v.23l.15-.15Zm.38,34L57,52l-.38-.38-.23.38Zm.08-42.1.3.23.15-.23L57,9.79ZM57,53.94l.23-.23H57Zm.23-36.18h.15l-.15-.3Zm1.22,35.42.3-.23a.49.49,0,0,0-.42-.49,2.81,2.81,0,0,0-.72-.11h-.38V53Zm-1.06-36.4.15-.15-.15-.23Zm.53,2.43.19.42a.37.37,0,0,0,.34.27l.3-.08Zm1,42.94h-1l.46-.53Zm.91-51.38a1.57,1.57,0,0,0-1,.34,10.26,10.26,0,0,0-.8.72h1.52ZM58,50.9h.23L58,50.6Zm1.52-35.49a2.67,2.67,0,0,0-.65.76q-.27.46-.49.91L59.81,16Zm-1.06-5.09h.3v-.23h-.3Zm.38,44.31.15.15v-.3ZM60,17.24l-1.14.23.57.19c.23.08.22.22,0,.42Zm-1,1.59h.23v-.3H59ZM59.2,9h.42A.71.71,0,0,0,60,8.8h-.8Zm.08,41.65.23.23.23-.23-.23-.3Zm.46,10.11q.3.3.61.65a1.82,1.82,0,0,0,.68.49,7.75,7.75,0,0,1,1-1.79,2.06,2.06,0,0,1,1.6-1.1l.68.38.3-.3-.68-.84L60.8,60.1l.23.61-.08.23-.84-.53Zm.08-8.36H60v-.2ZM61.1,18.83q-.61,0-.91.76A3,3,0,0,0,61.1,18.83ZM61,55l.3-.23-.53-1.06.23-.3h-.84ZM60.27,8.27l.23.23.23-.23L60.5,8Zm0,4.41.23.23.23-.23-.23-.3Zm0,4,.23.3.23-.3-.23-.3ZM61,10.55h.3v-.46H61Zm0,1.06h.3v-.23H61Zm.84,6.54a2.54,2.54,0,0,0-.08-.61.41.41,0,0,0-.46-.3Zm0-7.37a3.36,3.36,0,0,1-.15,1.06,3.36,3.36,0,0,0-.15,1.06,1.43,1.43,0,0,0,.65-.53,5.58,5.58,0,0,0,.42-.68L62,10.78ZM62,61.92l1.06-.84.91.3a1,1,0,0,0-.68-1q-.68-.34-1.06-.49l-.46,1.75ZM61.94,9.64l.08.15.15-.15L62,9.56Zm.3,9,.08.15.76-.3,1.14.3-.61-1.06.38-.84v-.15Zm.38,36.1.3-.61a.88.88,0,0,0-.61.3Zm.76-38.68a.65.65,0,0,0-.57.27,1.09,1.09,0,0,0-.19.65l.49-.34a.65.65,0,0,0,.27-.54Zm.23-5.55H64a2.86,2.86,0,0,1-.15-.38,1,1,0,0,0-.23-.38Zm.15,45.07-.15-.15h.3ZM64,61.7l.15.23.15-.23-.15-.3Zm.08-9.12a.65.65,0,0,0,.27.57,1.66,1.66,0,0,0,.57.27.74.74,0,0,0-.85-.85Zm.3-36.4L65.74,16h-1.6Zm1.06,44.76-.68-1.14-.38.3Zm-1-52.67.15.23.23-.23L64.6,8Zm.3,8.13a.49.49,0,0,0,.42.49l.72.19V16.4ZM65.13,9a.69.69,0,0,0,.61-.23h-.61Zm0,8.74h.3l-.3-.3ZM65.28,19l.23-.08-.08-.08Zm.15,36h.46v-.53Zm.15-43.62h.3V9.56Zm.15,40.51.15.3.15-.3-.15-.3Zm0,7.68h.15l-.15-.23Zm1.06,1.29a1,1,0,0,0-.46.11.42.42,0,0,0-.23.42,1,1,0,0,0,.46-.11.42.42,0,0,0,.24-.42Zm-.38-43a.35.35,0,0,0,.23.38,1.43,1.43,0,0,0,.46.08.35.35,0,0,0-.23-.38l-.46-.15Zm1.82.68-1.6.3h1.29ZM66.65,52.8l.08.15a.73.73,0,0,0,.23-.53Zm.84,5.78c-.1-.35-.28-.53-.53-.53Zm-.3-47h.3l-.3-.23Zm.53.23a.73.73,0,0,0,.38.3,1.91,1.91,0,0,1,.46.23v-.53Zm0,47.73h.23v-.23Zm.53,1.14h.3v-.84h-.3Zm.08-50.39.23.23v-.46Zm.61,49.25h.84a7.27,7.27,0,0,0-.49-1Q69,58,68.57,58Zm.76-39.37-.15.08.08.15.15-.15Zm0-8.74.3.91.3-.53-.53-.53Zm0,45.75a.6.6,0,0,0,.51.68h.17a.6.6,0,0,0-.54-.65h-.15Zm.08,4.18q.23-.07.23-.53h-.23Zm.61-11.1.08.08.15-.15-.08-.08Zm0,7.9.15.08V58Zm.15.91.23-.23h-.23Zm1-45.14-.15-.61a.75.75,0,0,0-.3-.46v.3Zm-.46,42.56h.3V56.3h-.3Zm.3-44.92h.15l.61-.23-.3-.08Zm0,6.46.15.23.23-.23-.23-.3Zm0,2.81.15.23.23-.23-.23-.3Zm0,28.88h.3a.43.43,0,0,1-.3-.15Zm.76-31.24a5.09,5.09,0,0,0-.46.34.62.62,0,0,0-.23.49A.56.56,0,0,0,72,19.1a1.14,1.14,0,0,0,.12-.57Zm-.24,40.1.23.3.15-.3-.15-.3ZM72,20.35l.08.23.15-.23-.08-.23Zm0,35.8.15.15V56Zm.68-46.44-.08.08.15.15.08-.15Zm.15,10.11A.48.48,0,0,0,73,20a.67.67,0,0,0,.3.08v-.3ZM73,21.26l-.15.08.15.15.15-.15Zm-.08-2.51.23.23.15-.23-.15-.23Zm.38-7.52-.15.15.08.15.15-.15Zm.15,45.83.23.23.15-.23-.15-.3Zm.23-43.47.23-.38-.23-.3Zm0,7.22.15.08a.59.59,0,0,0,.38-.61Zm.68,34.66c-.05.15-.1.33-.15.53a.94.94,0,0,0,0,.53ZM74.17,58h.15l-.15-.23Zm.15-37.24a.61.61,0,0,0,.61.3c0-.1-.08-.18-.23-.23a1.28,1.28,0,0,0-.37,0ZM74.62,57h.3l-.3-.3Zm.08,1.52.23.3.15-.3-.15-.3Zm.23-42.86h.53l.15-.3h-.68ZM75.46,48l.15.23.23-.23-.23-.3Zm.08-27.59.08.08.15-.15-.15-.15Zm.08,36.78h.3v-.53h-.3Zm.08.53.23.23.23-.23-.23-.23Zm.23-42.64h.3a.69.69,0,0,0-.08-.3.5.5,0,0,0-.23-.23Zm1.29-2h-.53l.76.38h-.23Zm-.15,3.27,1-1.67a1.15,1.15,0,0,0-.8.46,3.63,3.63,0,0,0-.57.76Zm-.38,38H77v-.3h-.3Zm.08-5.93.23.23.15-.23L77,48.32Zm.3-25.38.15.23.15-.23-.15-.23Zm.23,5.17.15.23.23-.23-.23-.3Zm.23,24.85.23.23.23-.23L77.75,53Zm0,3.88.23.23L78,57l-.23-.3Zm.38.91.15.08v-.23Zm.84-44.76c-.2,0-.3.13-.3.38ZM78.6,25l.15.15v-.3Zm.14,28H79v-.3h-.3Zm.38-35.8v.23l.15-.15Zm.08,20.67a3.14,3.14,0,0,0,.3.46v-.46ZM79.42,14l-.15.15.08.15.15-.15Zm.08,28.12v-.3h-.23Zm-.08-7.3h.23l-.15-.15Zm.15,16.26.23.23.15-.23-.15-.23Zm.15-36.25a.67.67,0,0,0,.08.3.49.49,0,0,0,.23.23l.23-.23A.5.5,0,0,0,80,15a.69.69,0,0,0-.28-.12Zm.3,4.71v-.3H79.8Zm-.15,23.33.08.23.15-.23-.08-.3ZM80.1,25l.15.23.23-.23-.23-.3Zm.3-8.36-.15.15h.3Zm.46,16.8a3.69,3.69,0,0,1-.19-.42c0-.08-.17-.11-.42-.11a.62.62,0,0,0,.61.51Zm-.61,3.88.61-.23-.61-.61Zm.84-3.65-.68.15L81,34l-.08-.08Zm-.68,6.54.15.15V40Zm0,1.06h.23a.22.22,0,0,0-.08-.15ZM80.56,53c0,.25.1.38.3.38Zm.38,1,.08.15.15-.23-.08-.23Zm.68-34.35V18.3l-.53.53Zm-.3-4,.3.3.15-.3-.15-.3Zm.15,35.57h.23l-.08-.15Zm.46-34.58.15.3.23-.3-.23-.3Zm0,3.88.15.23.23-.23-.23-.3Zm0,7.75.15.23.23-.23-.23-.3Zm.08,4,.08.15.15-.15-.15-.15ZM82.38,34h.23v-.3Zm.23,16.42v-.23h-.23Zm-.15-32.15v.23l.15-.15ZM83.07,39l.84-.53H82.76Zm.08-2.51.23.3.23-.3-.23-.3Zm.3-16.19.23.23.53-.23-.53-.23Zm.46,1.37-.23.15.23.15.23-.15ZM84,45.51l.15.23.23-.23-.23-.23ZM84.21,47l.23.23.15-.23-.15-.23Zm0,1.44v.23s.09-.08.11-.08.06,0,.11-.08Zm.3-24.55.15.23.15-.23-.15-.23Zm.15,23.64h.23l-.23-.3ZM85.2,45l.23-.23-.23-.61-.3.38ZM85,22.4l.23.23.15-.23-.15-.3Zm.3-1.06H86l-.3-.23Zm.15,20.82h.23l-.23-.3Zm.08-11.25.15.23.23-.23-.23-.3Zm.68-3q0,.76.68.76a1.23,1.23,0,0,0-.68-1.14Zm0,4h.3v-.3h-.3Zm.3,4.94h.23v-.38h-.23Zm.08,7.75.15.15v-.3ZM87,34.49l.23.23.15-.23-.15-.23Zm0,3.57.23.23.15-.23-.15-.23Zm.08-8.28.15.3v-.53Zm.15,12.39h.23l-.23-.3Zm1-11.86.08.08.76-1.06h-.3Zm.15,5.85-.15.08.08.15.23-.15ZM88.84,39v.23L89,39Zm.3-11.1.15.15v-.3Zm.46,4.56.15.23.23-.23-.23-.3Zm0,7.68.15.23.23-.23-.23-.3Zm.76-7,.23-.23h-.23Z"/><path class="cls-1" d="M105,8.42h1.67q1.29,0,2.66.11a20.76,20.76,0,0,1,2.47.34c.73.15,1.1.35,1.1.61V43.91q.38.76.72,1.52l.72,1.6-.23.46h.76L118,49.54l-.08.23q1.21.08,2.36.23l2.36.3v.23a17.44,17.44,0,0,0,2.62-.68,12.94,12.94,0,0,0,2.47-1.14l-.08.08.38.3q1.06-1.06,2-2.2a5.89,5.89,0,0,0,1.25-2.66,40.28,40.28,0,0,0,.57-5.32q.11-2.74,0-5.47T131.71,28q-.15-2.73-.15-5.4l.38-.53-.38-.46V9.48l1.6-.76h10l.68.76v36.4a10.17,10.17,0,0,1-1.22,4.26,26.43,26.43,0,0,1-3,4.83,23.57,23.57,0,0,1-4,4,6.58,6.58,0,0,1-4,1.67q-.46,0-.61-.87a2.33,2.33,0,0,0-.53-1.25l-1,1.52v.3l.91-.61c.05.1.13.28.23.53a1.78,1.78,0,0,1,.15.53q0,.53-1.18.87a20.83,20.83,0,0,1-2.7.57,29.3,29.3,0,0,1-3,.3l-1.9.08a24,24,0,0,1-11.82-3,19.75,19.75,0,0,1-8.25-8.82q-.53-1.06-1-2.2a6,6,0,0,1-.49-2.43V9.48l1.22-1.06ZM101.92,25.6l-.15.08.15.15.15-.15Zm0,17.48.23.08a1.2,1.2,0,0,0,.23-.3Zm.3,2.28h.23l-.08-.15Zm.15-10.72h.08l.38-.23-.08-.08Zm.08,8.51.15.23.23-.23-.23-.3Zm.46-11.32V31.6h-.3Zm0-11.4.08.23.08-.15Zm.23-4,.23.23.23-.23-.23-.3Zm.38,8.59-.15.08.15.15.15-.15Zm.15,6,.23-.3h-.53Zm.23-8.21.53-.84-.3-.08-.53.46Zm.53,3.27a.66.66,0,0,0-.53.3h.53Zm.46-6.61c-.3,0-.46.2-.46.61a3.28,3.28,0,0,0,.76-.61Zm-.46,27.66.08.08.38-.3v-.23Zm.08,1.6.15.3.15-.3-.15-.3Zm.38-32.6a.83.83,0,0,0-.3.53h.3ZM104.73,13l.15.15L105,13l-.15-.15Zm0,7.52.15.23.23-.23-.23-.23Zm0,12.62.15.23.23-.23-.23-.23Zm.3-15.28-.15.08.15.15.15-.15Zm14.14,39.75a9.86,9.86,0,0,1,2.89-.19q1.52.11,2.89.11l.23.23a2.84,2.84,0,0,1,.84-.49q.61-.27,1.29-.53a10.06,10.06,0,0,1,1.33-.42,4.72,4.72,0,0,1,1-.15l.68.08-.23-.3a7.15,7.15,0,0,1,1.94-1.6,15.13,15.13,0,0,0,2.09-1.44,9.84,9.84,0,0,0,2.32-2.81,14.7,14.7,0,0,0,1.33-3.34,21.1,21.1,0,0,0,.61-3.61q.15-1.86.15-3.61t-.08-3.23q-.08-1.63-.05-3.31h1l-.84-.38V15.94h.53l-1.22-2.58-1.14.53V29.67q0,2.13-.08,3.65a8,8,0,0,1-.23,1.9h.23v7.22l-.46.68.46-.23.08.61a1.16,1.16,0,0,1-.27.72,1.7,1.7,0,0,0-.34.72l.3.53a6.66,6.66,0,0,1-1.48,4,14.37,14.37,0,0,1-3.08,3.12l-.76-.3a2,2,0,0,1-1,1.75,3.63,3.63,0,0,1-2,.68l-.84-.38-.38.91-1.18.27a5.7,5.7,0,0,1-1.1.19l-.61-.08.46-1-1.67,1.06h-3.57l-.76-.76-.91.3a20.44,20.44,0,0,1-3.65-1.82,16.67,16.67,0,0,1-3.27-2.66,13,13,0,0,1-2.32-3.34,9.19,9.19,0,0,1-.87-4V14.65a1.7,1.7,0,0,0-.19-.76.73.73,0,0,0-.72-.38l-.68.61V43.61l-.91.76h.91l-.15,1.22.38.3a23.54,23.54,0,0,0,3,5.85,14.2,14.2,0,0,0,5,4.18v.84l.53-.53a1.1,1.1,0,0,1,1,.65,1.1,1.1,0,0,0,1,.65,1.71,1.71,0,0,0,.53-.15l.53-.23.68.08a3.18,3.18,0,0,1-.84,1.44q-.61.61-1.22,1.14V60a2,2,0,0,0,1.48-1.14,2.21,2.21,0,0,1,1.18-1.22q-.08,0-.08-.11t.08-.11l.15.08Zm-13.68-16a.54.54,0,0,0-.38.53h.38Zm-.3,8.51h.3v-.3Zm.15-35.8h.23l-.08-.15Zm.53-2.43.15-.23-.15-.3Zm0,43.4.15-.15-.15-.15Zm.08-3.12.23.23.23-.23-.23-.23Zm.38.61.15.15v-.3Zm1.06-40.2.08.3.3-.68-.08-.3Zm1,41L108,52.35l-.3.23Zm-.61-20.9.23.23.76-.23-.76-.3Zm.22-15.9c0,.25.1.38.3.38Zm0,39.44h.3v-.53H108Zm.08-31.31.23.23.15-.23-.15-.3Zm0,10.79.23.23.15-.23-.15-.3Zm.3-12.62.15.23v-.46Zm.3,12.77c-.1,0-.15,0-.15.08a.08.08,0,1,0,.15,0Zm.08-15,.3.23.15-.23-.15-.3Zm.3,34.43h.23V55h-.23ZM109.52,28v-.3h-.23Zm-.08,5.32.15.08a1.19,1.19,0,0,0,.23-.3Zm.08-10.94.3-.3h-.3Zm0,12.08.3.23-.3-.76Zm0,22h.3v-.23h-.3Zm.08-39.52.23.23.15-.23-.15-.23Zm.08-3.42.23-.08-.08-.08Zm.23,1.14.15.23.15-.23-.15-.3Zm0,12.69.15.08v-.15Zm.38,16.57v-.3H110Zm-.15,1.75.15.23.15-.23-.15-.23Zm.76-6.61-.38-.53-.23.23Zm-.46,16.11.38.23a.49.49,0,0,0-.3-.46v.15Zm.08-26.68.84-.84h-.15Zm0,18.54.3.46-.3-.76Zm.15,1.22.08.08.15-.15-.08-.15Zm.15-6.92h.61l-.3-.53Zm.15,2.74.15.15v-.3Zm.23-24,.15.23.15-.23-.15-.3Zm.15,37.16h.53v-.46h-.53Zm.08-30.93.15.15V26.2Zm0,8.13a1,1,0,0,0,.46.46l.15-.23a1,1,0,0,0-.46-.46Zm1.06,12.08-.61-.84-.38.38ZM112,49.78q-.23,0-.34.38a2.22,2.22,0,0,0-.11.53c.15,0,.28-.13.38-.38s.18-.43.23-.53Zm-.38-26.68h.3v-.23Zm.08-.76.23.23.15-.23-.15-.3Zm.15,12.08c-.05,0-.08.09-.08.11s0,.06-.08.11.08-.09.08-.11a.17.17,0,0,1,.07-.12Zm.15,4.33a2.09,2.09,0,0,0,.38.46l.23-.23-.23-.23-.08.08-.15-.3Zm.3.08c-.05,0-.08,0-.08.15V38.9s.07,0,.07-.08Zm-.08,16.64.15.23.23-.23-.23-.23Zm.76-5.85.46-.3-.53-.61-.3.46Zm.46,1.9q.68,0,.68-.76l-1,.38Zm.23,7.75a.46.46,0,0,0,.3-.34,1.66,1.66,0,0,0,.08-.42h-.38ZM113.7,48l.23.3.15-.3-.15-.3Zm.61,12.24-.15.08.08.15.15-.15Zm.08-10.18.08.08a1.08,1.08,0,0,1,.23-.19,1.1,1.1,0,0,0,.23-.19h-.15Zm.3,8a4,4,0,0,0,.15,1,1,1,0,0,0,.61.72l.23-1.29-.61-1Zm1.75-3.65.38-.53-.72-1.18q-.34-.57-.65-1.18l-.3.46Zm-.68,5.93.23.3.15-.3L116,60ZM116,61l.23-.15H116Zm.3-10.18.15.3.23-.3-.23-.3Zm3.34,11.25.08-.23-.46-1.14.61-.91-.15-.08a3.76,3.76,0,0,0-1.44.42q-.91.42-.91,1l1.06-.3Zm-1.14,0c-.1-.15-.33-.23-.68-.23Zm-.38-7.9.15.23.15-.23-.15-.23Zm.53-.46,1-.46-.46-.46ZM120,55.24l.08-.3-.46-.53-.38.3Zm-.3-3.5V52a.22.22,0,0,0,.15-.08Zm.91,8.89h.3a.88.88,0,0,0-.3-.61Zm.46-7.45.91-.61h-.91Zm.08,8.06-.08.08.15.15.08-.08Zm.53-6.31a2.15,2.15,0,0,0-.38.46l.53-.46Zm-.38,3.27a.58.58,0,0,0,.42.27.56.56,0,0,1,.42.34V58.2Zm.38,1.14a1,1,0,0,0,.46.46l.23-.23a2.68,2.68,0,0,0-.53-.53Zm.38-.08-.15.3A.44.44,0,0,1,122.06,59.26Zm-.08.91.15.15V60Zm0,1.37.08.08.15-.15-.08-.08Zm.53-7,.15.15v-.3Zm.08,7.45.15.15.15-.15-.08-.15Zm1.22-2.43-.53-.84-.61.53Zm-.15-5.93.3-.3-.53-.76-.3.3Zm0,7.37h.3l-.3-.38Zm1.29-1.75.3-.76-1.14.3Zm0,1.06h.3V60h-.3Zm.3-6.46.15.23.23-.23-.23-.23Zm.53,8,.15.23.23-.23-.23-.23Zm.15-6.92.3-.23h-.3Zm.91,5.7.68-.84a5.6,5.6,0,0,0-.68-.23,1.69,1.69,0,0,1-.61-.3v.38Zm-.08-8.28.15.23.23-.23-.23-.23Zm0,5.93.15.23.23-.23-.23-.23Zm1.06.38-.08.08.15.15.15-.08Zm.3.76.15.15v-.3Zm1.44-7.9a.68.68,0,0,0-.61.68q.63,0,.63-.69Zm-.53,7h.3v-.3H129Zm1.06-5.93h.23v-.23h-.23Zm.15-2.51h.3v-.76Zm2.43,7.37a2.8,2.8,0,0,1-.38.15.3.3,0,0,0-.23.3l.08.15a.62.62,0,0,0,.56-.61Zm-.46-1.29v.23l.15-.15Zm.15-6.84.15.23.3-.23-.3-.23Zm.76-3.88.23-.23-.23-.3-.23.3ZM133,41.86l.15.23.15-.23-.15-.3Zm.23-25.92.15.23.23-.23-.23-.3ZM133.3,47h.61l-.23-.53Zm.23-13.22.08.08.15-.15-.08-.15Zm.76,20.29a.63.63,0,0,0-.57.3,1.27,1.27,0,0,0-.19.68.49.49,0,0,0,.49-.42.84.84,0,0,1,.42-.57Zm-.53-42,.15.23.15-.23-.15-.23Zm0,4.1.15.15.15-.15-.15-.23Zm.15-4.64h.23V11.3ZM135,37.22l-.84-1.06-.23.61Zm-1,19.53.15.23.23-.23-.23-.3Zm.76-17q-.68.3-.68.84a.56.56,0,0,0,.53-.27,1.14,1.14,0,0,0,.14-.56Zm-.68,17.94a.42.42,0,0,0,.23.42,1,1,0,0,0,.46.11.43.43,0,0,0-.23-.42,1,1,0,0,0-.48-.11Zm.08-12.84.3-.53h-.3Zm.38-20.52.15-.3-.23-.23-.23.3.23.3.3.15.15-.23-.23-.3-.15.38Zm0,29.26.23.3.15-.3-.15-.3Zm.23-32.6.23-.3h-.23Zm.08,7.83v.23L135,29Zm.23,5.32.15.23.15-.23-.15-.3Zm.2-22.19v.15a.22.22,0,0,0,.15-.08Zm0,33.9.23.08a1.19,1.19,0,0,0,.23-.3Zm.15-30.55h.84v-.23Zm.3,1.37.23-.38h-.53Zm-.3,20.06h.3V36.4Zm.08,20.52.23.23.15-.23-.15-.3Zm.07-33.3h.23l-.08-.15Zm0,18,.08.08.15-.15-.08-.15Zm.23-10.94.15.23.23-.23-.23-.3Zm0,22,.15.23.23-.23-.23-.23Zm.3-20.29-.23.15.15.15.23-.23Zm0-4.94L136,28l.15.15.15-.15ZM136,21.57l.23.23.15.53-.15-1.06Zm.23,4.33h.23v-.3l-.23.08Zm.23-14.44.08.38.46-.08-.3-.76Zm.23,39.67H137v-.3Zm.3.68.23.3.23-.3-.23-.3Zm.3-41.34-.08.08.15.08.15-.08Zm0,2.13.23.23.15-.23-.15-.3Zm.53-3.12.15.23.15-.23-.15-.3Zm0,38.76.15.23.15-.23L138,48Zm.38.46h.3v-.23h-.3Zm.38-25.08.15.23.23-.23-.23-.3Zm1.22-9.73v-.23l-.61-.84-.46.3Zm-1.06,3.57c.41,0,.61-.18.61-.53h-.61ZM139,39l-.27.27a.76.76,0,0,0,0,.34.88.88,0,0,0,.31-.58Zm0,2.36V41h-.3Zm-.15-11.93h.23l-.08-.15Zm.38,12.16H139l.46.23h-.23ZM139,52.12l.46.46-.23-.68Zm0,1.52h.46l-.46-.3Zm.08-23.86.15.3a.1.1,0,0,1,.14,0h0a.22.22,0,0,1,.08.15l.23-.23-.23-.23-.08.08-.15-.38Zm.3-19.84-.15.08.08.15.15-.15Zm.08,13.91v-.23h-.23ZM139.31,37l.23-.23h-.23Zm0,11.7h.23l-.23-.23Zm0,2.13h.15l.08-.3ZM139.38,30l.08-.15-.08.23Zm.68-15.88a1.44,1.44,0,0,0-.27.38,1.48,1.48,0,0,1-.27.38,4.15,4.15,0,0,1,.34-.3.55.55,0,0,0,.21-.46Zm-.53,26.14.84.3L140,40Zm.08-28.65.23.23.15-.23-.15-.3Zm.76,16-.3-.76-.23.38Zm-.53,10.87h.23v-.3h-.23Zm.08,5.4.15.3.23-.3-.23-.3Zm.15-27.59.61-.38-.3-.3Zm.61-3.8L141,11a.49.49,0,0,0-.46.3,1.22,1.22,0,0,0-.15.53Zm0,35v-.3h-.3Zm-.23-12.84.23.23v-.46Zm.08,14.82h.23l-.08-.15Zm2.13-39.75-2,.3,1.9.23a.25.25,0,0,1-.08-.3.87.87,0,0,1,.17-.24Zm-2,7.07.08.3.08-.15Zm0,28.88.15.23.91-.23-.91-.23Zm.15-32.53a2,2,0,0,0,.91.23l-.61-.53Zm.23,1.75.3-.23-.3-.3-.23.3ZM140.83,33h.23v-.15h-.23Zm.53,15v-.3h-.53Zm-.3,3.12v-.61l-.23.3Zm-.15-13.38.15.23.23-.23-.23-.3Zm.23,5.09.23.23.23-.23-.23-.23Zm.38-26.6-.15.08.08.15.23-.15Zm.15,18.39h.23l-.23-.23Zm.08-19.76.15.23.15-.23-.15-.23Zm.3-4-.15.08.15.15.08-.15Zm0,6.46-.15.08.15.15.08-.15ZM142,20l-.15.08.08.15.15-.15Zm-.15,3.65h.23l-.23-.3ZM142,12.3l.15.23.23-.23-.23-.23Zm0,8.7.15.23.23-.23-.23-.3Zm0,10.56.15.23.23-.23-.23-.3Zm0,3.34.15.23.23-.23-.23-.3Zm.23-20.06.23.23.15-.23-.15-.23Zm.46,2.58a3.3,3.3,0,0,0-.3.46h.15ZM142.42,40l.08.15.15-.15Zm.08-14.52.15.23.15-.23-.15-.3Zm0,21.36.15.23.15-.23-.15-.3Zm1-30.63.15.15.15-.15-.15-.23Z"/><path class="cls-1" d="M156.79,60.94V9.86l1.06-1.29h9.5l1.6,1V60.94L167.88,62h-10l-.46-.23Zm.91-36.18.15.23.15-.23-.15-.3Zm0,13.38.15.23.15-.23-.15-.23Zm1,8.51.15.23.3-.23-.3-.3Zm1.52-16.8q-.68,0-.68.61l.91-.53Zm-.68,7.6v.23l.08-.15Zm.08-9.65h.3v-.23h-.3Zm.23,4.56-.23.08.3.15.3-.15Zm-.23,7,.15.08a1.77,1.77,0,0,0,.46-.3Zm.46-26.45-.15.08.08.15.23-.15Zm-.15,28.5.3-.23h-.3Zm.38,2.13.15.23.15-.23-.15-.3Zm.15-7a.68.68,0,0,1,.38-.19,1.29,1.29,0,0,0,.38-.11v-.15h-.76Zm.23-20.75.23-.3h-.23Zm0,1.29h.23v-.3h-.23Zm0,7.14.23-.23h-.23Zm0,23.64c.15,0,.23-.25.23-.61V47.1Zm.08-10,.15.3.23-.3-.23-.3Zm0,2.58.15.3.23-.3-.23-.3ZM161,21.19l.23.23.08-.23-.08-.3ZM161.3,34l.15.23.23-.23-.23-.3Zm.15-21.89a3.53,3.53,0,0,0,.46-.19,1.45,1.45,0,0,0,.38-.27h-.15Zm1.44,45,.76-.3V42.24l.68-.46-.61-.38V30.92l.61-.38-.68-.38V13.66l-.42-.19a1.16,1.16,0,0,0-.42-.11c-.25,0-.44.18-.57.53a7,7,0,0,0-.3,1.22,12.34,12.34,0,0,0-.15,1.33v.87l.3.53v3.8l-.3.23.3.3V39.5q0,8.59.23,17.33Zm-.61-47h.15v-.3h-.15Zm.15,2.58V13l.61-.84h-.15Zm.08,45.37.23.23.23-.23-.23-.23Zm.84-47.2,3,.23-2.81-.53Zm.46,12,.23.23.15-.23-.15-.23Zm0,29,.23.3.15-.3-.15-.3Zm.61-.61.08.08.15-.15-.08-.08Zm.15,6.54.3-.3-.3-.23ZM164.92,34l.15.23.15-.23-.15-.3Zm0,1,.15.3.84-.3-.84-.3Zm0,6.46.15.23.15-.23-.15-.3Zm0,13.76h.23l-.08-.15Zm.15-43.55.23-.23h-.23Zm.3,39.06.15.23.23-.23-.23-.3Zm.23-7.22.23.23.23-.23-.23-.3Zm.3,4.64.23.23.15-.23-.15-.3Zm.08-6.08.15.15v-.3Zm0,17.63.08.23.15-.3-.08-.23Zm.23-16.19.15.23v-.53Zm.15,14.59.15.23.23-.23-.23-.23Zm.3-48.34-.15.08.15.15.15-.15ZM167,54.6l.15.15v-.23Zm.15-32.45.23-.3h-.23Zm.61,17.4-.61.23.76-.15Zm-.53-7.75V32l.15-.15Zm.46,15.2h.23v-.15Zm.3-16,.15.15v-.3Zm0,24.32v.15l.15-.3Zm.46-36.56.23.23.23-.23-.23-.23Z"/><path class="cls-1" d="M189.69,25.37v-.76h1v-.68h-1.14a1.32,1.32,0,0,1,.27-.76,1.32,1.32,0,0,0,.27-.76h-.38V21.34l.68.3c-.05-.2-.11-.42-.19-.65a.47.47,0,0,0-.49-.34V17l.46.76.3-.23a1.19,1.19,0,0,0-.49-1,2,2,0,0,1-.49-1.6h5.32l.3.23.3-.23h.38a.37.37,0,0,0-.08.27q0,.19.08.19l.23-.23-.15-.23h2.05l.68.46,1.06-.46h5.93l.38.84q.38,0,.42-.42c0-.28.34-.42.95-.42l-.23.23a1.66,1.66,0,0,0,.46.65,1,1,0,0,0,.68.27l.76-.46-.08-.3h-1l.46-.46H212l.53-.91a2.75,2.75,0,0,1-.19-.68,3.82,3.82,0,0,0-.11-.68l-.53.3h-4a2.55,2.55,0,0,1-1-.19l-.23.53a12.08,12.08,0,0,0-2.05-.27h-2.05l-.23-.3-.53.38a1.65,1.65,0,0,0-1,0l-.53-.3-1.82.53-.76-.61-.23.3h-4.1l-.53-.76-.3.53.08.23a18,18,0,0,0-2.36.15,12.5,12.5,0,0,0-2.28.53V22.4h-.23c-.1,0-.13.14-.08.19l.3.3-.23,1h.23v3.42l-.3.3.46.68v29l.38.38-.08.61,1.33.23q1,.15,1,.61l-.53,1a1.81,1.81,0,0,0-1.44-.76l-.84.38V58.9h.76l-.76-.53-1.22,2.74.23.61h-3.42l-.68-.76q-.15-1.37-.23-2.7t-.08-2.7V44.82q0-5,.15-10t.15-10q0-2.66-.23-5.21t-.23-5.21V13.21a18.22,18.22,0,0,1,.11-2,11.23,11.23,0,0,1,.34-1.82q.23-.8.68-.8H216l1,1v9a1.37,1.37,0,0,1-.42.91,1.2,1.2,0,0,1-.87.46l-.76-.3a32.59,32.59,0,0,0-4.18.27,32.24,32.24,0,0,1-4.18.27q-2.81,0-5.85-.3a18.2,18.2,0,0,0-5.78.3,9.1,9.1,0,0,0-.46,2.32q-.08,1.18-.08,2.32l.23.15v3l-.23.23.08.38.23-.08a14.18,14.18,0,0,0,3.27.53q1.67.08,3.34.08H207q2.81,0,5.62-.08l.61.76v9.8l-.61.84h-17.5q-.08.53-.19,1.06a5.06,5.06,0,0,0-.11,1.06q0,1.9.08,3.76t.23,3.76a19.55,19.55,0,0,0,3.8.53q1.9.08,3.88.08,3.42,0,6.69-.19t6.69-.19l1,1v9.58l-.76.76H205.12v-.61l.08.08.23-.3-.15-.15-.15.15v-.53l-.61-.61.76-.84-.15-.08-1.06.61-.76-.3a5.2,5.2,0,0,0-.8.65,5.19,5.19,0,0,1-.8.65l-.53-.3-.46.68v.15l.46-.23.46.23a2.32,2.32,0,0,0,1.9-.84,5.53,5.53,0,0,1-.23,1.6h-9.5l-.53-.53-.53.76-.23-.23a2.61,2.61,0,0,1,.53-1.06l.76-.91v1l1-.61-.53-.23a1.06,1.06,0,0,1,.34-.84,2.27,2.27,0,0,1,.8-.46l-.3-.46a8.63,8.63,0,0,0-.91.53,5.52,5.52,0,0,0-.84.68.73.73,0,0,1-.76-.65,4.86,4.86,0,0,1-.15-1.1,6.11,6.11,0,0,1-.72.11,2.8,2.8,0,0,0-.72.19v-.3h-.53l.23-.3h4.41l-.3.61a2,2,0,0,1,1.37-.68c.56,0,1.09-.08,1.6-.08a2.7,2.7,0,0,0,.84,2l.3-.38a2,2,0,0,1-.68-1.44h.38v.3l.61.53,1-.23-.53-.61q3.34,0,6.65-.11t6.65-.11a1.33,1.33,0,0,0-.53-1.1,3,3,0,0,0-1.25-.57,9.73,9.73,0,0,0-1.48-.19h-3.69l-2.47.11a.44.44,0,0,0,.08-.3c0-.15,0-.23-.08-.23l-.15.3.08.23H202l-.3-.3-.23.3H198.2l.15-.3a3.39,3.39,0,0,0-1.14.19,3.34,3.34,0,0,1-1.14.19V55l-.68.3h-5.7V37.07l.15-.23-.23-1.06h1.29l-.15.15.23.3v-.46h3v.68l-.68.76-.3-.15.3.46a1.34,1.34,0,0,0,1.06-.57,1.87,1.87,0,0,0,.46-1.18h4.94l-.46.61.3.08.84-.68h4.1l.38.23.84-.23.84.46a.83.83,0,0,1,.53-.42l.72-.19a2.1,2.1,0,0,0,.61-.23.56.56,0,0,0,.27-.53l-.3-.76H201.7v-.38l-.84-.08-.68.3h-5l.15-.23-.23-.3-.23.3L195,34h-1.2a.44.44,0,0,0,.08-.3c0-.15,0-.23-.08-.23l-.15.3.15.23h-4.1V31.45l.15-.3a6.89,6.89,0,0,0-.08-1,6.71,6.71,0,0,1-.08-1l.46.23v-.76h-.53l.3-.61-.23-.38v-2l.08.15.3-.23-.23-.3Zm-6.84,12.46.15.23.15-.23-.15-.3Zm.46,20.52-.15,1-.08-.15a1.37,1.37,0,0,0,.23-.85Zm-.08-29.79a.25.25,0,0,0,.19.23.92.92,0,0,0,.34.08.25.25,0,0,0-.19-.23,1,1,0,0,0-.34-.08Zm.08,3.34.15.23.23-.23-.23-.23Zm0,27.74.15.23.23-.23-.23-.3Zm.3-23.26h.23a.23.23,0,0,0-.08-.15Zm.3,24.47-.15.08.15.15.15-.15Zm-.08-36.63.23.3v-.61Zm.08,12.84.08.23.46-.23-.38-.23Zm.15-24.4.15.23.15-.23-.15-.3ZM184.21,57h.23l-.23-.23Zm.23-39.29-.15.3.15.23-.15-.23Zm-.15,9,.15.23.3-.23-.3-.3Zm.08,4h.23l-.15-.15Zm.23-14.14-.15.15.15.15.23-.15Zm-.15,37.85.38-.46h-.38Zm.38,4.86.46-.46h-.84Zm.23.38q-.15,0-.3.3l.08.08ZM184.83,16h.23v-.61h-.23Zm.15,2.43-.15.08.15.15.3-.15Zm.08,7.52v-.23h-.23Zm-.23,29.79a.52.52,0,0,0,.46-.23h-.46Zm0,2.13h.46l-.23-.3Zm.08-37.24.15.23.15-.23-.15-.3Zm0,6.76.15.15v-.23Zm0,4.26.15.23.15-.23-.15-.23Zm0,28.73.15.3.15-.3-.15-.3ZM185.13,25a1,1,0,0,0,.19.27l.27.27.15-.3-.15-.3-.3-.15Zm.46-11.4a1.14,1.14,0,0,0-.38.61h.38Zm-.38,19.61.61.46v-1Zm.08-22.57.3.15V10.4Zm0,25.61.3-.23h-.3Zm.08-17.4.23.3a.1.1,0,0,1,.14,0h0a.22.22,0,0,1,.08.15l.15-.23a.73.73,0,0,1-.23-.53h-.15Zm.15,6.08V25q-.08.08-.08.11s0,.06-.08.11a.43.43,0,0,1,.15-.31Zm-.15,16,.23.23.15-.23-.15-.3Zm.08-11.1.15.3V29.6Zm0,8.13h.23l-.08-.15ZM185.68,24l-.08.08.08.15.15-.15Zm.38,3,.08-.15,1.29-.38-1.82.23Zm-.46,33.67.23-.3-.23-.3Zm.08-41.65.08-.15-.08.23Zm.08-3.27a.93.93,0,0,0,.38.76,3,3,0,0,0,.76.46l.15-.23a1.25,1.25,0,0,0-1.31-1Zm.3,41.8a2.68,2.68,0,0,0-.15.38,1.25,1.25,0,0,0-.08.38v.23l.46-.68Zm-.15-39.52.15.23.15-.23-.15-.3Zm0,12.54.15.23.15-.23-.15-.23Zm0,19.3.15.23.15-.23-.15-.3ZM186,22.71l.23-.3H186Zm.15,6.23.08.15.15-.08-.15-.15Zm0,29.79.08.15.15-.15-.15-.15Zm.08-2.66h.61l-.23-.3Zm.08-16.19.3.23.15-.23-.15-.23Zm0,19.23.3.23.15-.23-.15-.23Zm.3-3.8.23-.3h-.23Zm.08,2.81.3.46.23-.23a2.08,2.08,0,0,1-.38-.46Zm.15-39.82H187V18Zm0,14.44L187,33l.23-.23-.23-.3ZM187,57.21l-.15.08.08.15.08-.15Zm-.08,1c0,.1,0,.15-.08.15s.07-.16.16-.16Zm0-46.44.08.15.15-.08-.15-.23Zm0,16.42v.3l.08-.15Zm.23,25.23-.15.08.15.15.15-.15Zm.15,6.69,1.14.38.68-.38.53.3.15.3-.15.38.15.08c.1,0,.11-.08,0-.23s-.06-.23,0-.23H190v1h-2.74l-.38-.76Zm-.23-31.46.23.23.23-.23-.23-.3Zm0,12.31.23.23.23-.23-.23-.3Zm.23,15.58-.23.3.23.23-.23-.23Zm.3-26.14v-.23l-.3-.53-.08.23Zm-.23-19.3.23.3.15-.3-.15-.3Zm0,7.37v.23s.09-.08.11-.08.06,0,.11-.08Zm0,6.69v.23l.23-.15Zm0,10.11.23.23.15-.23L187.6,35Zm0,19,.23.23.15-.23L187.6,54Zm0,3.88.23.23.15-.23-.15-.23Zm.08-31.24.15.15v-.3Zm.23,33.67v.23l.15-.08Zm.68.84h.76a1.31,1.31,0,0,0-1.06-.46Zm.38-3.5-.15.23-.15-.23.15-.3Zm-.15-48.11h.3l-.3-.46Zm.53,2.36a.84.84,0,0,0-.3-.53v.15Zm.38,45.07.68.61-.08.3a.8.8,0,0,1-.65-.23,2.21,2.21,0,0,1-.34-.61Zm.15-46.44c0,.1,0,.15.08.15s.08,0,.08-.15Zm.08,21.28H190l-.15-.15Zm.15,27.36.23.3.23-.3-.23-.3Zm.53-43.7h.23v-.3Zm0,11.63h.23c.3,0,.46-.2.46-.61ZM190.49,11l.15.23.23-.23-.23-.3Zm0,35.42.15.23V46Zm0,6.16.15.23.23-.23-.23-.3Zm1.14-27.36a.76.76,0,0,0-.61.27,2.84,2.84,0,0,0-.38.57l.23.08a.65.65,0,0,0,.57-.27,1.09,1.09,0,0,0,.23-.68Zm-1,6.31.3-.3-.3-.3Zm.3,29.26-.3-.46h1.06l-.3-.38h1.29a2.26,2.26,0,0,1-.61,1.06h.38a2.47,2.47,0,0,1-.49.61,1.08,1.08,0,0,1-.72.23l-.61-.84Zm-.23-42.1.23.23V18.3Zm0,31.54,1.52.46a6.77,6.77,0,0,0-1.46-.5ZM191,60l-.08.15-.23-.15.23-.23Zm.08-43.7-.15.3.15.23-.15-.23Zm0,4.64.61-.76-.3-.3-.46.3ZM191,45l.15.23.23-.23-.23-.3Zm0,15.88.15.23.23-.23-.23-.23Zm.08-36.86h.15a.22.22,0,0,0-.08-.15Zm.08-14.74h.3l-.3-.23Zm.3,22.57c-.2,0-.3.08-.3.23l.08.08c.13,0,.2-.1.2-.31Zm.3,27.21-.61.84.23-.68Zm-.23-26.75-.08.08.15.15.15-.15Zm0-8.66.23.23.15-.23-.15-.23Zm0,2.36.23.23.15-.23-.15-.3Zm0,15.35.23.23.15-.23-.15-.23Zm.08,11.4.15.15v-.23Zm.15-31.16H192v-.3Zm0,8.21.42-.11c.08,0,.11-.16.11-.42Zm.08-17.78v.15a.22.22,0,0,0,.15-.08Zm0,30.86.15.23.23-.23L192,42.7Zm0,10.34.15.23.23-.23L192,53Zm.08-34.58.08.15a.6.6,0,0,0,.34-.27,1.79,1.79,0,0,1,.27-.34Zm.38,5.85.23-.38-.23-.23-.3.23ZM192,59.11l.84.3-.84.3.23-.3Zm.08-32.3.23.23.15-.23-.15-.3Zm.91-4.1a1.14,1.14,0,0,0-.3-.53,3,3,0,0,0-.46-.38Zm-.68-3.12h.3c0-.3-.1-.46-.3-.46Zm0,28,.23-.23h-.23Zm1,4.86h-1l1.29.53h-.3Zm-1,1.6h.23v-.3h-.23Zm.08-3.12.15.3.15-.3-.15-.3Zm.38-11.25.53-1.06-.3-.3-.46.76Zm-.15-19.15h.23l-.08-.15Zm.15-4.48h.3a.88.88,0,0,0-.3-.61Zm.08,35-.08.08.08.23.15-.15Zm.46,7.37.68-.08-.3-.53-.91.38v-.08Zm-.46-40.66L193,18l.23-.23-.23-.23Zm0,18.77.15.3.23-.3-.23-.3Zm.76-15.12-.3-.53-.3.23ZM193,20.12l.23.23.23-.23-.23-.3Zm0,10,.23.23.23-.23-.23-.3Zm.08-2,.15.15V28Zm0,13.38h.23a.23.23,0,0,0-.08-.15Zm.15-17.4h.3v-.23h-.3Zm.08,25.76.23.23.15-.23-.15-.3Zm.23-20.29h.23l-.23-.3Zm.08-9,.15.23v-.53Zm0,18.09h.23a.22.22,0,0,0-.08-.15Zm0,14.74v.23l.15-.53Zm.38-1.67-.23.15h.46Zm-.23,3H194l-.23-.53Zm.38,4.64-.23.3-.15-.3.15-.3ZM194,53l.23.23.23-.23-.23-.23Zm0,8.21.23.23.23-.23-.23-.23ZM194.25,18h.46l-.15-.46.3-.76h-.61Zm0,19.53a.48.48,0,0,0,.27.49,1.43,1.43,0,0,0,.57.11v-.61Zm.15,20-.15.08.15.15.15-.15Zm-.08,3.19.23.23.15-.23-.15-.3Zm.3-7.22.15.23.23-.23-.23-.3Zm.46-42.71v-.15h-.3Zm0,20.06h.3l-.3-.23Zm.08,28.8.23.23v-.53Zm.23-29.49.15.23.15-.23-.15-.3Zm.15,9.5v-.3h-.15Zm-.15,19.46h.15v-.23Zm0,1.82h.15l-.15-.23Zm.15-48.34h.23l-.23-.23Zm.08,48.56.15.23.23-.23-.23-.23Zm.46-28.2V31.9h-.38Zm-.3,26.75c.2,0,.3-.13.3-.38Zm.08-22.42.23.23.23-.23-.23-.23Zm0,22.65.23.15.23-.15-.23-.23Zm.08-42h.23a.22.22,0,0,0-.08-.15Zm.3,39.6-.15.08.08.15.23-.15Zm.38-26.9a.47.47,0,0,0,.08.27.48.48,0,0,1,.08.27l.08-.3-.23-.46Zm0,23.41.23-.38-.08-.15Zm.23,4.64-.08.23a.46.46,0,0,0,.3-.34,1.67,1.67,0,0,0,.08-.42h-.53Zm-.08-20.82h.76a1.88,1.88,0,0,0-.76-.53ZM197.3,18l.15.15.23-.15-.08-.15Zm.3,42.18v-.76l-.3.38Zm0-43.62V16l-.23.23Zm-.23,17.18h.23v-.23ZM197.9,61h.3l-.3-.23Zm.08-24.4.23.3v-.61Zm0,3.34.23.23v-.46Zm.08,13.68.15.15v-.23Zm.15.68.15.23.15-.23-.15-.23Zm.15-42.1h.23v-.23Zm0,6.38h.23V18.3h-.23Zm.08,32.76-.08.08.15.15.08-.15ZM200,9l-1.6.23,1.75-.15Zm-1.14,51.91v-.23h-.3Zm.76-45.22a4.87,4.87,0,0,1-.53.3.49.49,0,0,0-.3.46.81.81,0,0,0,.86-.73ZM199,31.9l.23.23.15-.23-.15-.23ZM199,52l.23.23.15-.23-.15-.3Zm0,7.68.23.23.15-.23-.15-.3Zm.23,1.75.23-.23h-.23Zm.23-43.85h.23v-.23Zm.08-5.4.15.23.23-.23-.23-.23Zm0,6.69.15.3.23-.3-.23-.3Zm0,11.32.15.23.23-.23-.23-.3Zm0,22.8.15.23.23-.23-.23-.23Zm0,5.4.15.23.23-.23-.23-.23Zm.15-47,.3-.23h-.3Zm.53,27.21.23-.3-.53-.3ZM200,31.45a.88.88,0,0,0,.3-.61H200Zm.46,5.62.53-.23-.23-.38-.76.38Zm-.15,22.72-.08.3a15.35,15.35,0,0,1,1.25-.91,1.53,1.53,0,0,0,.8-1.29l-.23-.3-.53.3h-.08l-.38-.3h-.15v1l-.46-.23-.46.53ZM200,31.68l.15.23.15-.23-.15-.23Zm.91-19.53-.23-.76-.3.23Zm.53,41.65a.83.83,0,0,0-.65.3,2.33,2.33,0,0,0-.42.68l1.06-.53Zm-.76-34.66h.3a.72.72,0,0,0-.3-.61Zm.08,20.75.15.23.15-.23-.15-.23Zm.38-24.47v-.23h-.23ZM201,38h.23a.22.22,0,0,0-.08-.15Zm.38,20.37-.23.23-.15-.23.15-.23ZM202,17l.23-.23L202,16h-.15l-.38.46Zm-.46,19.15h.23a.22.22,0,0,0-.08-.15Zm0,17h.23l-.07-.1Zm.15-41,.61-.38-.61-.61Zm.3,19.53V31.4h-.3Zm-.23-12.31.23.23.15-.23-.15-.23Zm0,17.18a3.63,3.63,0,0,0,.46.53l.15-.3-.23-.3-.08.3.08-.3L202,36.2Zm.3-18.85-.08.08.15.15.08-.15Zm0,36.71-.08.08.15.15.08-.15Zm0-44.84.15.23V9.33Zm1.67,27.28a1.25,1.25,0,0,1-.76.8.9.9,0,0,0-.61.87,1.92,1.92,0,0,0,1.14-.38A1.23,1.23,0,0,0,204,37Zm-1.29,17.94.61-.38-.08-.15Zm0,3.8c.3,0,.48-.08.53-.23h-.53Zm.3,2.58c-.2,0-.3.08-.3.23.22,0,.33,0,.33-.19Zm-.23-43.85.23.23.15-.23-.15-.3Zm0,36.71.23.23.15-.23-.15-.3Zm.76-41.42.53-1.29-1.06.84Zm0,5.4.23-.23-.23-.23Zm.46-1,.3-.23h-.3Zm.08,37,.23.23.15-.23-.15-.3Zm.08,4.33.08.23.15-.23-.08-.23ZM204,10.56h.53c-.1-.35-.28-.53-.53-.53Zm0,5.09a.41.41,0,0,0,.46.3Zm.46,45.22v.76a.89.89,0,0,1-.3-.76ZM204.29,39l.23-.23h-.23Zm.53,14a1.77,1.77,0,0,1-.15.72,1.74,1.74,0,0,0-.15.72l.61-.91Zm-.23-1,.23.23L205,52l-.23-.3Zm0,6.38.23.23.23-.23-.23-.23Zm.68-3.88a.62.62,0,0,0-.53.61c.36,0,.53-.23.53-.63Zm-.46-36,.3-.23-.3-1.29Zm.3-7.45.15.3.23-.3-.23-.3Zm0,25.69.15.3.23-.3-.23-.3Zm.15-26.68h.3V9.56h-.3Zm0,49.78h.3a5.13,5.13,0,0,0-.3-.53Zm.84-42.71a.37.37,0,0,0-.34.23l-.19.38h.53Zm-.23,44.31a2.11,2.11,0,0,0,.68-1.52l-1,1.22Zm.46-7.75a.47.47,0,0,0-.53.53h.53ZM205.88,9.1h.23V8.8h-.23Zm0,3h.23v-.23ZM206,37.68v.23a.22.22,0,0,0,.15-.08Zm.53,1.29-.15.08.15.15.08-.15Zm.38,14.21.46-.46h-.76Zm-.3,1.6V55l.53-.23v.3l1-.61-.84-1.06-.15.08.23.53Zm.3,4.26-.3.08.23.15.3-.15Zm.23-42,.23-.23a.54.54,0,0,0-.46-.61h-.15Zm-.23-6.38a1.05,1.05,0,0,0,.84.53.37.37,0,0,0-.34-.38,2.26,2.26,0,0,1-.54-.19ZM209,58.39a1.94,1.94,0,0,0-1.1,1.22,2.75,2.75,0,0,1-.95,1.37l.08.08a1.55,1.55,0,0,0,1.1-.65q.57-.64.87-1l-.23-.23Zm-2-40.66V18l.15-.15Zm.23,39.9.15.3.3-.3-.3-.3Zm.15,1.06,1.06-.3-.61-.53Zm.08-21.89.15.3-.15.23.3.23.15-.23-.15-.23.15-.3-.15-.3Zm.3-24.93q0,.76.68.76,0-.79-.69-.79Zm.08,26.68h.2l-.08-.23Zm.15-28.12.46-.3-.46-.3Zm.38.91.61.3-.08-.38.3-.61-.08-.08Zm.23,40.58-.23.23.15.08.23-.23Zm-.08-20.22.23.23h.15l-.15-.46Zm.3,28.88-.23.3c.14-.17.22-.27.22-.32Zm-.08-6.84h.3a1.84,1.84,0,0,1-.11-.27.78.78,0,0,0-.19-.27ZM209,30.1l-.08.08.15.15.08-.15ZM209,61l.15.23h.23l-.23-.46Zm.15-44.46.53-.23-.23-.23Zm.23,18.39.08.15.76-.3-.38-.23ZM210.21,18V16.63l-.53.68Zm-.53,1.29.23-.76-.23.3Zm.3-7.75-.08.08.15.15.15-.15Zm.23,47.58v-.23h-.3ZM210,37.6l.23.23.23-.23-.23-.3Zm0,15.88.23.23.23-.23-.23-.3Zm.08-38.15h.23a.23.23,0,0,0-.08-.15Zm.23,3.72a1.56,1.56,0,0,0,.38.3l-.15-.53Zm.23,35.72h.23v-.3Zm.08-20.6.08.08.15-.15-.08-.15Zm0,17.25.15.23v-.46Zm0,9.5.3.46.23-.23a2.1,2.1,0,0,1-.38-.46ZM210.75,16l1.06-.68-.08-.15Zm.08,45c0,.1,0,.15-.08.15s0-.15.07-.15Zm.38-49.1.3-.3-.3-.23-.3.23Zm.15,19.91-.15.08.15.15.15-.15Zm-.08,28.12.23.15.15-.15-.15-.23Zm.3-49.4v.23l.15-.15Zm0,49.86.15.3.23-.3-.23-.3ZM212,55h.3l1-2H213v.53h-.46l.23-.84-.08-.23a1.15,1.15,0,0,0-.42.57q-.12.34-.27.72l.23.3Zm.15-38.76.15.23.15-.23L212.3,16Zm.61,1.6v-.53l-.46.23Zm0,43.32a.8.8,0,0,0,.53-.72,7.57,7.57,0,0,0,.08-1l-.08-.38-1,.23.23.53-.23.53Zm1.06-50.39-1.44.3,1.44.3a.38.38,0,0,1-.08-.53l.05-.06Zm-1.44,23.48.15.23.15-.23-.15-.3Zm0,23.33.15.3.15-.3-.15-.3Zm.53.15.15.15v-.3Zm1.52-1.37.15-.08a1.33,1.33,0,0,0-1.14-.84l-.38.08Zm-1.06-45.22.23-.38h-.23ZM214,54.78l.53-.3-1.22-.23Zm-.46,2.81.08.08.38-.61Zm.08,1.06.38.23-.23-.53Zm.23-43.78-.08.53L214,15Zm.15,1.6.08.08.46-.3h-.15Zm.08,36.63q0,.84,1,1.14a1.27,1.27,0,0,0-.27-.8.87.87,0,0,0-.72-.33Zm0,4.48.23.3.15-.3-.15-.3Zm.23-38.76.76-1.06-.76-.76.23.84Zm.08,40.58.15.3.23-.3-.23-.3Zm.15-46.13a1.63,1.63,0,0,0,.42-.08.47.47,0,0,0,.34-.3l-.76-.3Zm.23,3.12.15.08.15-.23ZM215,59.34l.23.08.15-.23-.08-.08Zm.15-49.25.15.3.23-.3-.23-.3Zm0,1.29.15.23.23-.23-.23-.23Zm0,4.33.15.3.23-.3-.23-.3Zm0,40.89.15.23.23-.23-.23-.3Zm.23-42-.08.08.15.15.15-.15Zm.15,1.44q0,.3.42.46l.65.23a1.32,1.32,0,0,0-1-.76Zm.15,1.67.15.23.23-.23-.23-.23Zm.32,37-.15.08.15.15.15-.15Zm.3,3.27.08-.08-.23-.61-.3.3Zm-.08-42.64h.23l-.08-.15Z"/><path class="cls-1" d="M244.23,55.46a5,5,0,0,1,.27-1.33,15.89,15.89,0,0,1,.65-1.75,11,11,0,0,1,.87-1.63,3.17,3.17,0,0,1,.87-1l.61.08a3.75,3.75,0,0,1,.38-1.63,1.38,1.38,0,0,1,1.37-.8,3.91,3.91,0,0,1,1.86.65q1.1.65,2.55,1.44a21.76,21.76,0,0,0,3.27,1.44,12.21,12.21,0,0,0,4.1.65,7,7,0,0,0,1.79-.23,6.21,6.21,0,0,0,1.63-.68,3.61,3.61,0,0,0,1.22-1.18,3.28,3.28,0,0,0,.46-1.79,5.59,5.59,0,0,0-1.63-4,19.42,19.42,0,0,0-4-3.15q-2.39-1.44-5.24-2.85A40.25,40.25,0,0,1,250,34.64a17.63,17.63,0,0,1-4-3.84,8.39,8.39,0,0,1-1.63-5.21H244l-.15-1a6.6,6.6,0,0,1-.08-1,14.27,14.27,0,0,1,1.29-6,16.85,16.85,0,0,1,8.47-8.47,14.3,14.3,0,0,1,6-1.29l.84.38.84-.38.84.3.76-.3a23.4,23.4,0,0,1,3.91.49A33.84,33.84,0,0,1,272,9.76,20.24,20.24,0,0,1,276.49,12a3.71,3.71,0,0,1,1.94,3,5.55,5.55,0,0,1-.57,2.13,16.87,16.87,0,0,1-1.41,2.55,12,12,0,0,1-1.82,2.17,2.88,2.88,0,0,1-1.9.91,4.15,4.15,0,0,1-2.09-.65l-2.39-1.41a20.48,20.48,0,0,0-3-1.41,10.51,10.51,0,0,0-3.8-.65,9.93,9.93,0,0,0-1.71.15,4.94,4.94,0,0,0-1.56.53A3.28,3.28,0,0,0,257,20.38a3,3,0,0,0-.46,1.67,4,4,0,0,0,.91,2.62,12.84,12.84,0,0,0,2,1.94v.23h.38q3.12,1.6,6.61,3.27A37.71,37.71,0,0,1,272.92,34a20.23,20.23,0,0,1,4.86,5.21,13,13,0,0,1,1.94,7.18,15.8,15.8,0,0,1-1.06,5.78,17.07,17.07,0,0,1-3,5,2.17,2.17,0,0,0-1.29.68q-.61.61-1.25,1.29a9,9,0,0,1-1.48,1.25,3.56,3.56,0,0,1-2,.57l-.3-.23-.61.76a15.17,15.17,0,0,1-4.07,1q-2.09.19-4.22.19h-1.22l.38-1.14-1.14,1.29v-.3a24.89,24.89,0,0,1-3.57-.61,30.43,30.43,0,0,1-4.71-1.48,19.52,19.52,0,0,1-4.1-2.2A3.48,3.48,0,0,1,244.23,55.46ZM244.61,19l.15.23L245,19l-.23-.3Zm.23,34.66.23.23.23-.23-.23-.3Zm.76-26.22.15.23.23-.23-.23-.23Zm.76,26.6c-.1,0-.15.08-.15.23l.15.15Zm0-2.51h.23v-.3h-.23Zm.76-25.38a.56.56,0,0,0-.53.27,1.29,1.29,0,0,0-.15.65.47.47,0,0,0,.49-.3,5.45,5.45,0,0,0,.19-.64Zm-.38-8.36-.15.08.15.15.15-.15Zm-.15,2.66.15.08.38-.23Zm.53,1.82a3.37,3.37,0,0,0-.53.84l.15.08Zm-.53,3.65h.3l-.3-.3Zm.15,29.64-.15.08.15.15.15-.15Zm1.14-32a1.67,1.67,0,0,0-1,.84l1-.53ZM247.2,17l.15.23.15-.23-.15-.3Zm0,10.26.15.23.15-.23-.15-.3Zm0,25.92.15.23.15-.23-.15-.3Zm.8-31.87.38-.23-.53-.38-.3.38Zm-.38-2.51.23.23.23-.23-.23-.3Zm0,7.37.23.23.23-.23-.23-.23Zm0,1.06.23.23.23-.23-.23-.3Zm.23,26.3c0,.25.1.38.3.38a.27.27,0,0,0-.24-.3h-.06Zm.08-2.66.23.23.15-.23-.15-.3Zm.46-34.66.23-.3-.53-.3Zm.3,39.52a.47.47,0,0,0-.4-.53h-.13v.15Zm-.46-37.24.15.23.15-.23-.15-.23Zm0,1.9h.23l-.08-.08Zm0,1.44.15.23v-.53Zm0,29.94.08.08.15-.15-.08-.15Zm.15-26q0,.22.3.3a2.07,2.07,0,0,0,.46.08l-.53-.76-.3.3Zm.84-11.48a3.4,3.4,0,0,0-.84.53,2.07,2.07,0,0,0,.57-.08q.3,0,.3-.42Zm.68,1.06a2.36,2.36,0,0,1-.87.65,1.06,1.06,0,0,0-.65.87h.23l1.6-1.06ZM248.49,51v.23l.15-.15Zm0,5.47.15.23.15-.23-.15-.23Zm5,.23,1.18.27a17.43,17.43,0,0,1,1.79.49,17.75,17.75,0,0,1,1.67.65c.51.23.76.44.76.65l.3-.53a23.57,23.57,0,0,0,6.57-.91A14.38,14.38,0,0,0,271.52,54v.61h.68a8,8,0,0,1,.27-2q.27-1,.61-2t.65-2.09a7.73,7.73,0,0,0,.3-2.13,3.14,3.14,0,0,0-.23-1.18,3.16,3.16,0,0,1-.23-1.18.74.74,0,0,1,.84-.84l-.15.61.38.53.23-1.44-.53-.53-.68.3a8.94,8.94,0,0,1-1.82-1.71A9.12,9.12,0,0,0,270,39.2a40.62,40.62,0,0,0-5.28-3,65.85,65.85,0,0,1-6.27-3.53,26.24,26.24,0,0,1-5.24-4.33A7.72,7.72,0,0,1,251,23a7.42,7.42,0,0,1,.27-2A16.4,16.4,0,0,0,251.7,19l.84-.38-.3-.61a16,16,0,0,1,1.14-1.18,14.12,14.12,0,0,1,1.48-1.22,8.1,8.1,0,0,1,1.63-.91,4.22,4.22,0,0,1,1.6-.34l-.38.76v.3a.8.8,0,0,0,.57-.27q.27-.27.61-.57a4.43,4.43,0,0,1,.84-.57,2.82,2.82,0,0,1,1.33-.27,22.27,22.27,0,0,1,5.24.68,12,12,0,0,1,4.71,2.2l-.53.84.3.15.46-.68v-.15l.84.68a2.64,2.64,0,0,0,1.41-.53,4.46,4.46,0,0,0,1.18-1.06l-.3-.23-1.29.23-4.41-2.36L269,13l-1,.38-.53-.38.23-.76-.84-.46v1.29l-1.67-.68a2.08,2.08,0,0,1,.34-1.14,1.54,1.54,0,0,1,1-.68,2.47,2.47,0,0,0-1,.27,1.47,1.47,0,0,0-.46.42l-.34.49a1.73,1.73,0,0,1-.65.49l-1.22-.76V12a2.27,2.27,0,0,1-.72-.11.81.81,0,0,1-.49-.42l.15-.84-.61-.38-1.29.38A1.73,1.73,0,0,0,260.5,12a1.73,1.73,0,0,1-1-.27,1.74,1.74,0,0,0-1-.27l.3.76-1.52.3.53-.76-.53-.23a.3.3,0,0,0-.3.23l-.19.53a1.46,1.46,0,0,1-.34.53.93.93,0,0,1-.68.23l-1-.53.23.76h0c-.25.25-.66.62-1.22,1.1a2.4,2.4,0,0,1-1.44.72l-.46-.08-.46.3.23.3a10.21,10.21,0,0,0-2,4.37,30.85,30.85,0,0,0-.53,4.83,16.39,16.39,0,0,1,1.52,3.34l-.08.15a7.33,7.33,0,0,1,1.82,1.56q1,1.1,1.6,1.86a16,16,0,0,1,3.15,1.56,30.4,30.4,0,0,0,3,1.79v.84l.91-.3,3.65,1.86a21.14,21.14,0,0,1,3.65,2.39A12.94,12.94,0,0,1,271.17,43a7.26,7.26,0,0,1,1.1,4l-.08,1.22L272,48l-.53.3a1.89,1.89,0,0,1,.61,1.37,2.26,2.26,0,0,1-.49,1.41,12.28,12.28,0,0,1-1.06,1.22q-.57.57-1.06,1a1.81,1.81,0,0,0-.57.76,19.67,19.67,0,0,1-2.66,1.67,6.29,6.29,0,0,1-3,.76q-1.14,0-2.32-.08t-2.32-.08v-.08h-1.25a1.22,1.22,0,0,1-1.1-.61l.38-.23a2.6,2.6,0,0,1-1.37,0,1.9,1.9,0,0,1-.72-.49l-.53-.57a1,1,0,0,0-.72-.27l-.3.38L250.16,53a7.62,7.62,0,0,0-.8.27c-.33.13-.49.32-.49.57a.89.89,0,0,0,.57.91,3,3,0,0,0,1.1.23l-.08.61.23.23v-.38l.3-.08a3.61,3.61,0,0,1,1,.57,1.73,1.73,0,0,1,.57,1Zm-4.64-37.24h.3v-.23Zm.08,11.32.46.46.23-.23-.23-.23-.08.08-.15-.3Zm.46,26.14.3-.23-.61-.3Zm0-7.37q0-.08-.11-.08t-.11.08l1.67.15Zm.08,2.13-.08.15.53-.61-.3-.38c-.1,0-.14,0-.11.15s0,.23-.11.23l-.23-.15Zm-.23-37.85.15.23.23-.23-.23-.3Zm.08,17c-.05,0-.08,0-.08.15V30.9s.08,0,.08-.06Zm-.08,24.55.15.23h.23l-.23-.46Zm.08,2.81c.25,0,.38-.08.38-.23Zm.46-28.58.15,1.37V29.17Zm.68,20.14h.08a.66.66,0,0,0,.46-.23h-.23Zm0,6.92.76-.46-.15-.08Zm.23-40.81h.3l-.3-.23Zm.38,15.88.38-.15-.23-.38-.53.38Zm-.38,25.69.53-.53-.15-.08Zm0,.76a.76.76,0,0,0,.61-.27,1,1,0,0,0,.23-.65Zm.15-46.06.15.08V12Zm.08,1.6.3.3a.73.73,0,0,0-.23-.53Zm.38,38.38a2.08,2.08,0,0,0,.38.46l.23-.23a3.81,3.81,0,0,0-.46-.53Zm0,6.61.15.3.15-.3-.15-.3Zm.15-45.37.84-.3-.3-.53Zm0,1.22.23-.23h-.23Zm.08,18.54.15.23.23-.23-.23-.3ZM251.6,52a.43.43,0,0,0-.08.3Zm.15-30.78.23.23.23-.23L252,21Zm0,1.29.23.23.23-.23-.23-.3Zm0,8.44.15.23-.15.3.23.23.23-.23-.15-.3.15-.23-.23-.23Zm0,27.21.23.23.23-.23L252,58Zm.3-46.44.23.23.15-.23-.15-.23Zm.3,22.57-.15.15.15.08.15-.15Zm-.08,17,.23.23L253,51l-.3-.08Zm.15,1.75.84-.3-.53-.23Zm.08-38.76h.23l-.23-.53Zm1,6.69a4.52,4.52,0,0,0-1,1.22,1.17,1.17,0,0,0,.65,0l.65-.19v.3l.46-.46Zm-1,5.85h.23l-.23-.53Zm.23-2,.3.08.46-.3-.38-.3Zm.08-6.92.23.3.15-.08-.15-.53Zm0,16.57v.23l.23-.15Zm.08,16,.08.08.15-.15L253,50.2Zm.46,7.14-.38.08.38.15.46-.15Zm.84-45.6a.73.73,0,0,0,.72-.61.77.77,0,0,1,.8-.61l-1.14-1.06-1.52,1,1,.38-.23.68Zm-.91,15.66.23-.23H253Zm-.15-8.28v.23l.15-.15Zm.61-5.78.84-1.37a1.8,1.8,0,0,0-.87.23.8.8,0,0,0-.42.76Zm.38,40.13a.87.87,0,0,1,1-1v-.15l-1.82.76Zm-.84,7.07h.08q.46,0,.46-.53Zm.23-34.88h.3v-.3Zm0,33.59.15.08L254,59Zm.08-35.34.23.23.15-.23-.15-.3Zm.3-6.76.15.23.15-.23-.15-.23Zm0,9.8.15.23.15-.23-.15-.3Zm.15-6.76v.23l.84-.38-.3-.3ZM254,52h.23v-.23Zm.08-27.89.15.23.23-.23-.23-.3Zm.08,1.22a.54.54,0,0,0,.38.53v-.53Zm.15-8.21a1.92,1.92,0,0,1,.46.76l-.23-1.06Zm0,18.77.23.23.23-.23-.23-.3Zm.3-17.48.23.23.15-.23-.15-.23Zm.91,36.71h.38L255.48,54l.61-1.44L254.8,54Zm-.61-32.6.15.23.15-.23-.15-.3Zm.38-3.34.23-.76-.53.38Zm-.23,39.52a3.17,3.17,0,0,0,.46-.3h-.46Zm.08-38,.15.3.15-.3-.15-.3Zm0,1.29.15.23.15-.23-.15-.23Zm1.52-4.86h.23q0-1-1.06-1a1.23,1.23,0,0,0-.53.15Zm-1.14,7.68v-.23h-.23Zm-.15,4.1.15.23.23-.23-.23-.23Zm0,4.64.15.23.23-.23-.23-.23Zm0,1.75.08.08.15-.15-.08-.15Zm0,23.71.15.23.23-.23-.23-.3Zm.19-31h.3v-.3h-.3Zm1.14,2a2.64,2.64,0,0,0,.65-.27.61.61,0,0,0,.34-.57l-1-.46-.08.08.46.68-.08.15-1.14-.46-.3.53Zm-1.06-9,.23.3L256,21l-.15-.3Zm0,12.16.23.23.15-.23-.15-.3Zm.23,27.44h.23l-.23-.53ZM256,36.2l.15.23.15-.23-.15-.3Zm.15-7.75h.23v-.23h-.23Zm0,30.32.23-.3h-.23Zm.08,2,.15.23.3-.23-.3-.23ZM256.94,37h.15a2.93,2.93,0,0,0-.76-.53v.15Zm-.61,22.72c0,.41.18.61.53.61a.38.38,0,0,0-.19-.34,1.66,1.66,0,0,1-.35-.31Zm.38-42.18a1.17,1.17,0,0,0-.3.23l.3.15Zm0,6.92a1.17,1.17,0,0,0-.3.23,1.12,1.12,0,0,0,.3.23Zm0-13.45.08.08.3-.3H257Zm0,8.28h.15L256.7,19Zm0,7.22.15.23.15-.23-.15-.3Zm.15,8v-.3h-.15Zm0,20.44L257,55l.38-.3-.3-.23Zm.08,3.65.15.23.23-.23-.23-.3Zm.23-23.64.23.23.23-.23-.23-.3Zm.3,25.46.23.23.15-.23-.15-.3ZM258.14,38l.53-.38-.61-.38-.38.15Zm.23-29a2.78,2.78,0,0,1-.38.15.3.3,0,0,0-.23.3h.61ZM258,28.18l.15.23.15-.23-.15-.23Zm.53-10.79-.38.46v.61Zm-.3,10.18-.08.08.15.15.08-.15Zm-.08,3.19.53-.23-.53-.3Zm.08,5.93.15.23s.09-.06.11,0,0,.06,0,.11l.23.23.15-.23a2,2,0,0,0-.19-.3,3,3,0,0,0-.27-.3Zm.23-27,.23.23.15-.23-.15-.3Zm.15,27-.15.23s.08-.09.08-.11a.18.18,0,0,1,.06-.12Zm-.15,23.86.23.23.15-.23-.15-.3Zm.3-32.6.15.23.23-.23-.23-.3Zm.76-18.32c-.3,0-.48.09-.53.27a2.35,2.35,0,0,0-.08.65l.38-.38a.73.73,0,0,0,.22-.53Zm-.3,26h.3V35.4ZM259.3,38l.23.23v-.53Zm.23-8.36a1.2,1.2,0,0,0,.23-.3l-.08-.15Zm.3-12.31.08.15.15-.15-.15-.15Zm.08-3a.49.49,0,0,0,.27.46,1.12,1.12,0,0,0,.57.15v-.61Zm.61,47.5-.3-.53-.3.23ZM260,28.33h.23l-.08-.15Zm.68,1.9a.56.56,0,0,0-.53.27,1.12,1.12,0,0,0-.15.57q.76,0,.76-.53Zm.76-15.2a1.88,1.88,0,0,0-1,1.67.65.65,0,0,0,.53-.19.93.93,0,0,0,.19-.46l.08-.53a1.17,1.17,0,0,1,.24-.52Zm-.76-4.33a.25.25,0,0,1,.23.19,1,1,0,0,1,.08.34l-.3-.38Zm.3,26a3.06,3.06,0,0,0,.46.3v-.3Zm0,17.63.15.3.23-.3-.23-.3Zm0,5.4.15-.23H261Zm.15-50.54.3-.23h-.3Zm.08,46,.23.23.15-.23-.15-.3Zm.15-38.38.15.08.23-.15-.08-.08Zm.15,21.43.15.3.23-.3-.23-.3Zm0,20.29.15.23.23-.23-.23-.3ZM262,31a.38.38,0,0,0,.27-.34,3.28,3.28,0,0,0,0-.42l-.61.38Zm-.23,23.94.23.23.23-.23-.23-.3ZM262,16.86a2.71,2.71,0,0,0,.46-.53Zm.3-5.85.15.23.23-.23-.23-.3Zm.08,20.9-.08.23.15-.15Zm.08,27.59V59l-.15.23Zm-.08-20.06.08.08.08-.15a.22.22,0,0,0-.08-.15Zm.15-10.34-.08.08.15.15.15-.15ZM263.69,11l.3-.3.08.08L263,9.18l-.23.76Zm-.84,6.38.15.23.23-.23-.23-.23Zm.53,38.23.15.23.23-.23-.23-.23Zm.15-39.75h.61a.37.37,0,0,0-.23-.34l-.38-.19Zm.3,16.19.15.23.23-.23-.23-.3Zm0,27.21.15.23.23-.23L264,59Zm.38-5.7.15.08.23-.3Zm.15-20.44.23.23.15-.23-.15-.3Zm.46-1.9.3-.23h-.53Zm-.15,1.37.15.23.23-.23-.23-.3Zm0,21.28.15.15.23-.15-.23-.23Zm.46-37.24.23-.3-.23-.15-.3.15Zm.3,15.43.15.23.15-.23-.15-.3Zm.46,28.5.23.23.23-.23-.23-.3Zm.53-44.92V15h-.3Zm-.23,30.25.23.23.15-.23-.15-.3Zm0,16,.23.23.15-.23-.15-.3ZM266.65,31l.15.23.3-.23-.3-.23Zm0,11.1h.61l-.46-.3Zm.53,1.44V43.3h-.38Zm-.08,16.87.08.38a3.64,3.64,0,0,0,.91-1,2.22,2.22,0,0,0,.38-1.25L268.4,58l-.46,1.29-.3-.23Zm.15-41.5v.15a.22.22,0,0,0,.15-.08Zm0,25.92.08.08.15-.15-.08-.15Zm.23-3.88v.23l.15-.15Zm.23-22.8.23.3.15-.3-.15-.3Zm.84.84a.61.61,0,0,0,.57-.34.61.61,0,0,1,.57-.34l-.38-1,.08-.08-.15-.08a1.57,1.57,0,0,1-.34,1,1.39,1.39,0,0,1-1,.49Zm-.38-2.13.76-.53-.3-.15Zm.3,40.58.15.23.23-.23-.23-.23Zm0,2.36.15.23.23-.23-.23-.3Zm.15-48.87a.81.81,0,0,0,.3-.38h-.3Zm.08,9.27.23.23.23-.23-.23-.23Zm.23,24.7-.23.23.23.23-.23-.23Zm-.23,3.27.23.23.23-.23-.23-.23Zm.08,2.81.08.08.15-.15-.08-.08Zm.08,1.9c.4,0,.61-.15.61-.46l-.08-.08Zm.08,3.8h.3v-.23Zm.3-44.46h1V12h-1Zm.08-2.66.08.15.15-.15-.15-.15Zm.3,9.88H270v-.23Zm0,38.76q.38,0,.38-.53Zm.61,1.52.53-1.29-1.14.61v.15ZM269.7,9.94l.3.23.15-.23L270,9.71Zm0,8.82.3.23.15-.23-.15-.3Zm0,32.3.3.15.15-.15-.15-.23Zm0,.76.3.23s.09-.06.11,0,0,.06,0,.11l.15.23.15-.23a4,4,0,0,0-.38-.61Zm.15-37.92.91-.38-.38-.53Zm.08,44.46.15.15.15-.3Zm.61-47.12.46-.53a2.17,2.17,0,0,0-1,.23ZM270,47.94h.3a1.64,1.64,0,0,0-.08-.42,1,1,0,0,0-.23-.42Zm1-34.43-.91.3L271,14l-.15-.23Zm-.84,38.3a.31.31,0,0,0-.08.23Zm-.08,5.4.15.23.15-.23-.15-.3Zm.15-.61,1-.38-1-.61Zm.08-8.13.15.23.23-.23-.23-.23Zm1.37,9,.91-.84a4.22,4.22,0,0,0-1,.11,4.21,4.21,0,0,1-1,.11Zm-.76-10.94-.15.15.08.08a.22.22,0,0,0,.15-.08Zm0,2.28-.15.15.08.15L271,49Zm-.08.68.15.23.15-.23-.15-.3Zm0,8.66H271l.3-.15-.08-.08Zm.16-23a.83.83,0,0,0,.53-.3Zm.06-14.1.15.3.23-.3-.23-.3Zm0,18.47.08.08.23-.15-.15-.15Zm0,19.61.15.23.23-.23-.23-.3ZM271.29,18l.23.3.23-.3-.23-.3Zm.23,39-.23.3.23.23.23-.23Zm-.15-11.63h.23a.22.22,0,0,0-.08-.15Zm.46,9.88h.08a.93.93,0,0,0,.34-.08.48.48,0,0,0,.27-.23Zm0,1.06.68-.61h-.3Zm.08-18,.15.3V38Zm0,2.28a.78.78,0,0,1,.19.27,2,2,0,0,0,.11.27l.23-.23-.38-.53Zm0,17.71.15.23V58Zm.61-39.75a1.13,1.13,0,0,0-.3-.84l-.15.23Zm-.38,22.12a.15.15,0,1,1,0-.06ZM272.37,20l-.15.08.15.15.15-.15Zm-.08-5.32.23.23.23-.23-.23-.23ZM273,42.32l-.15.23-.23-.23.23-.23Zm-.23-29.79.08,1,.3-.61L273,12Zm.3,45.9V58h-.23Zm-.15-18.7L273,40l.23-.23L273,39.5Zm.15,2.81a3.86,3.86,0,0,1,.46.53l-.15.23-.46-.46Zm.3-2.28H273l.53.23h-.23Zm-.23-22.57.23.15.15-.15-.15-.23Zm0,4.33.23.23.15-.23-.15-.23Zm.23,33.82a3.91,3.91,0,0,1,.19.53.81.81,0,0,1,0,.53l.53-1.06Zm.08-38.76v.23l.15-.15Zm.23,35.26.15.23.15-.23-.15-.3Zm.23-33-.08.08.15.15.08-.15Zm0-2.43.15.23.23-.23-.23-.3Zm0,24.62.15.23.23-.23-.23-.23Zm1.44,11h.15a3.9,3.9,0,0,1-.23-.87,1.63,1.63,0,0,1,.08-.87c-.2.1-.43.23-.68.38a.68.68,0,0,0-.38.61Zm-.68-34.35.23-.38h-.53Zm-.23-5.4a3.81,3.81,0,0,1,.46.53L275,13a1.51,1.51,0,0,0-.38-.53Zm0,24.62.23.23.15-.23-.15-.23Zm0,16.72.23.23.15-.23-.15-.3Zm.23-33.9.23-.84-.23.53Zm0,20.22.23-.23h-.23Zm.15-27.74a.44.44,0,0,0-.08.3Zm-.08,28.65v.23l.15-.15Zm0,13.6.15.15v-.3Zm.38-9.65.53-.46-.84-.3Zm-.15,4,.15.23h.15l-.15-.53Zm0,6.46V56l.15-.15Zm0-42.4a2.12,2.12,0,0,0,0,.42,3.46,3.46,0,0,0,.11.42Zm.08,3h.08l.46-.46Zm0,38.08.53-.53-.3-.53Zm.08-37.24.15.3-.08.15.38-.15-.15-.08.23-.23-.38-.3Zm0,30.48.08.08.15-.15-.08-.15Zm.08-33.36.38.08a.45.45,0,0,0-.23-.38Zm.23,3.12a.22.22,0,0,1-.15.08h.08s0-.13.07-.13Zm.15,1.82h.23l-.23-.23Zm0,28.2c0,.46.19.71.57.76a1.45,1.45,0,0,1,1,.53l.3-.3Zm.08-32.83a1,1,0,0,0,.46.46l.15-.23a1,1,0,0,0-.46-.46ZM275.85,41h.3v-.3Zm0,3a13.2,13.2,0,0,1,1.67,1.67,2,2,0,0,0-.38-1.25,3.77,3.77,0,0,0-1-.87Zm0,7.22.53-.84-.38-.46-.15.08Zm.23-36.63q-.08.08-.08.11s0,.06-.08.11.08-.09.08-.11,0-.07.08-.13ZM275.93,55l.23.23.15-.23-.15-.3Zm1-2.28V51.36l-.76.68Zm-.68-5.7a2.28,2.28,0,0,1,.38.46l.23-.23-.23-.23-.08.08-.15-.3Zm.13-32c0,.05.08.15.23.3Zm.08,25.38.08.08.15-.15-.08-.08Zm0,8.28.15.3.23-.3-.23-.3Zm.53,4.1.15.23.23-.23-.23-.23Zm0,.84.15.23.23-.23-.23-.3Zm.38-2.81h.53l-.15-.61Zm.15-35.49.23.3V15Zm0,27.74.23.23v-.53Zm.08,4,.23.08-.08-.15Zm.15-3v.23a.22.22,0,0,0,.15-.08Zm0,5.78.15.23.15-.23-.15-.23Zm.08-4.56.91-.46-.46-.46Zm0,7q.61,0,.61-.68h-.15ZM277.9,49l1.29-1.29L279,47.1a3.27,3.27,0,0,1-.49.53l-.57.46Zm.08.3.15.23.23-.23-.23-.3Zm1.29-2.58.23.23.15-.23-.15-.3Z"/><path class="cls-1" d="M6.53,111.37h4.66v3.07H0v-3.07H2.78V93.18H0V90.11H11c6.29,0,8.83,3,8.83,7.58s-2.54,7.49-8.83,7.49H8.93v-3.12h2.26c3.84,0,4.8-2,4.8-4.37s-1-4.56-4.8-4.56H6.53Z"/><path class="cls-1" d="M31.14,111.37h3.17V93.18H31.14V90.11H41v3.07H38v18.19h3v3.07H31.14Z"/><path class="cls-1" d="M70.78,92.94,56.86,111.37H67.42V106h3.31v8.5H52.3v-2.83L66.22,93.18h-10V97.4H52.83V90.1h18Z"/><path class="cls-1" d="M100.58,92.94,86.66,111.37H97.22V106h3.31v8.5H82.1v-2.83L96,93.18H86V97.4H82.62V90.1h18Z"/><path class="cls-1" d="M128.41,111.37h3.26l-1.82-4.46H120l-1.82,4.46h3.31v3.07h-9.55v-3.07h2.3l7.49-18.19h-2.26V90.11h11v3.07h-2.16l7.39,18.19H138v3.07h-9.55Zm.62-7.49-4-10.07-4.08,10.08Z"/><path class="cls-2" d="M171,112.38a8.78,8.78,0,0,1-6.53,2.45c-5.23,0-8.26-2.88-8.26-7.15a6,6,0,0,1,4.8-6.1c-2.4-.77-3.89-2.5-3.89-5.62,0-2.3,1.39-6.24,8.79-6.24a21.39,21.39,0,0,1,6.72,1.06L171,95.87a19.71,19.71,0,0,0-4.9-.72c-1.82,0-2.69.91-2.69,2.21s1,2.06,2.74,2.06h4.08V97.89l5.9-.86v2.4h2.54v4.9h-2.54v3.89c0,.91.67,1.15,1.49,1.15h1.78l-.19,5.14a16.88,16.88,0,0,1-3.6.38A4.92,4.92,0,0,1,171,112.38Zm-4.85-8.06c-2.16,0-3.41,1.06-3.41,2.59s.91,2.45,3.41,2.45a8,8,0,0,0,4.13-1.06v-4Z"/><path class="cls-1" d="M197,111.37h2.83V93.18H197V90.11h10.9c5.42,0,7.87,2.5,7.87,6.34,0,2.69-1.54,4.71-3.65,5.14a6.09,6.09,0,0,1,4.85,6.14c0,5.09-4,6.72-9.07,6.72H197Zm10.46-11c3,0,4.56-1.34,4.56-3.74,0-2.06-1.15-3.46-4.46-3.46h-4.08v7.2Zm.43,11c3.89,0,5.33-1.49,5.33-3.89s-1.2-4.13-5.38-4.13h-4.37v8Z"/><path class="cls-1" d="M240.23,111.37h3.26l-1.82-4.46h-9.89L230,111.37h3.31v3.07h-9.55v-3.07H226l7.49-18.19h-2.26V90.11h11v3.07h-2.16l7.39,18.19h2.3v3.07h-9.55Zm.62-7.49L236.77,93.8l-4.08,10.08Z"/><path class="cls-1" d="M259.38,93.13h-2.83v-3h11.33c6.34,0,8.83,2.54,8.83,6.86,0,3.41-2.16,5.71-5.86,6.38,2.4,1.68,4.56,5.14,5.57,8.06h3v3H270v-3h2.45a15.39,15.39,0,0,0-5.52-7.68H263v7.68h2.88v3h-9.36v-3h2.83Zm8.69,0h-5v7.63h4.7c3.94,0,5.23-1.49,5.23-3.74S271.91,93.13,268.07,93.13Z"/><path class="cls-2" d="M233.45,0c5.67,0,8.37,1.11,9.64,2.28a2.94,2.94,0,0,1,.51,3.63L234.32,22a1,1,0,0,1-1.73,0L223.3,5.91a2.94,2.94,0,0,1,.51-3.63C225.08,1.11,227.79,0,233.45,0Z"/><rect class="cls-2" y="75.99" width="278.17" height="4"/></g></g></g></g></svg>